<?xml version="1.0" encoding="utf-8"?>
<!DOCTYPE svg PUBLIC "-//W3C//DTD SVG 1.1//EN" "http://www.w3.org/Graphics/SVG/1.1/DTD/svg11.dtd">
<svg version="1.1" id="Capa_1" xmlns="http://www.w3.org/2000/svg" xmlns:xlink="http://www.w3.org/1999/xlink" x="0px" y="0px"
	 width="841.891px" height="715.667px" viewBox="0 0 841.891 715.667" enable-background="new 0 0 841.891 715.667"
	 xml:space="preserve">
<g>
	<path fill="#38A8DB" d="M188.764,302.516c0.297,0,0.597-0.051,0.814-0.135l0.825-0.24l2.208-0.288l2.133-0.517l0.363,0.046
		c0.33,0.035,0.421,0.044,1.11,0.015l1.593-0.165l1.265-0.197l2.173-0.645l0.249-0.009c0.44-0.013,0.792-0.062,1.246-0.139
		l1.433-0.338l1.225-0.164l2.11-0.444l3.024-0.44l1.054-0.359l2.852-0.415l1.023,0.012c0.907-0.029,1.69-0.222,2.449-0.616
		l2.338-0.359l0.949-0.324l2.16-0.403l0.45-0.147l0.795,0.569l0.058,0.155c0.146,0.404,0.444,1.032,0.78,1.453l0.859,1.136
		l1.755,2.646l0.54,0.936l1.354,1.78l0.782,2.303c0.098,0.268,0.229,0.633,0.533,1.007l1.472,2.467l0.44,1.037l1.104,1.881
		l0.776,0.988l0.873,1.529l0.691,0.951l0.885,1.543l0.751,0.966l0.918,1.963l1.889,3.098l0.501,0.694l0.861,1.501
		c0.071,0.15,0.169,0.28,0.276,0.413l0.637,1.046l0.477,0.09c0.182,0.034,0.354,0.053,0.522,0.053c0.952,0,1.751-0.537,2.101-1.387
		l0.862-1.125c0.267-0.302,0.462-0.698,0.644-1.087l0.211-0.645l0.84-1.611l0.163-0.354l0.8-2.535l0.693-1.118
		c0.368-0.542,0.629-1.259,0.724-2.026l0.093-0.376l0.154-2.121l-0.133-0.358c-0.18-0.678-0.438-1.462-0.939-2.096l-0.66-0.889
		l-0.77-0.789l-1.143-1.666l-0.082-0.226c-0.142-0.391-0.292-0.628-0.425-0.834l-0.994-1.58l-0.506-1.014l-1.185-1.765l-2.304-3.601
		l-0.742-1.7l-0.216-0.587l-0.163-0.296c-0.025-0.038-0.048-0.08-0.069-0.125c-0.07-0.13-0.146-0.259-0.225-0.369l-0.84-1.336
		l-0.165-0.675l0.04-0.163l0.339-0.009l2.046-0.378l1.245-0.168l1.79-0.413l0.285,0.034c0.444,0.082,0.893,0.003,1.204-0.064
		c0.067-0.012,0.133-0.026,0.271-0.052l2.339-0.511l0.734-0.208l1.261-0.214c0.539-0.032,1.072-0.229,1.472-0.371l2.27-0.577
		l2.568-0.42l1.434-0.17l1.993-0.399l1.527-0.142l0.729-0.652c0.693-0.507,1.267-1.193,1.607-1.937l0.751-1.602l1.259-2.514
		l0.269-0.389l1.39-2.737l0.693-1.691l0.603-0.847l0.054-0.172c0.287-0.946-0.036-1.958-0.91-2.85l-0.241-0.244l-0.808-0.156
		l-0.12,0.002c-0.159,0.004-0.335,0.034-0.51,0.073c-0.047,0.01-0.094,0.021-0.121,0.025l-3.862,0.688l-2.226,0.56l-2.952,0.353
		l-4.586,0.91l-2.035,0.549l-1.225,0.117l-1.656,0.298l-0.265-0.029l-0.374,0.05c-0.294,0.034-0.664,0.078-0.996,0.198l-2.549,0.797
		l-2.259,0.322l-3.184,0.169l-1.02,0.328l-2.07,0.293l-0.893,0.211l-1.69,0.234l-1.665-0.022l-0.802-0.315l-1.55-2.327l-1.145-2.611
		l-1.692-2.938l-1.561-2.476l-0.438-0.849l-1.134-1.64l-0.345-0.747l-1.578-2.64l-1.269-1.872l-0.029-0.306
		c-0.13-0.532-0.37-1.299-0.783-1.9l-1.212-1.896l-1.081-1.909l-0.104-0.294c-0.19-0.514-0.403-1.097-0.82-1.613l-0.751-1.139
		l-1.229-1.732c-0.388-0.596-1.202-1.859-2.852-1.753l-1.551,0.315l-1.165,2.507l-0.277,0.793l-0.939,1.815l-0.216,0.884
		l-1.176,2.538l-0.579,1.034c-0.529,0.844-0.807,1.827-0.776,2.696l-0.056,1.286l0.119,0.565l0.044,0.151
		c0.165,0.457,0.423,0.93,0.713,1.306l1.468,2.361l1.148,1.566l1.652,2.894l0.604,0.784l0.578,1.423l0.051,0.108
		c0.059,0.109,0.114,0.211,0.16,0.315c0.138,0.278,0.29,0.591,0.517,0.879l1.081,1.418l0.283,0.628l0.063,0.12
		c0.031,0.057,0.051,0.105,0.071,0.149c0.07,0.17,0.178,0.423,0.417,0.673l1.159,1.455l1.21,1.95l0.569,1.395l-0.145,0.162
		l-0.814,0.206l-1.981,0.168l-2.284,0.068l-0.187-0.008c-0.571,0-1.145,0.139-1.622,0.259l-2.538,0.462l-0.945,0.073l-1.968,0.323
		l-0.006,0.001l-0.167-0.01c-0.629-0.039-1.326-0.007-1.667,0.123l-1.119,0.292l-1.051,0.168l-1.65,0.427l-0.265-0.043
		c-0.56-0.033-0.983,0.019-1.444,0.167l-0.406,0.043c-0.926,0.118-1.734,0.436-2.536,1.003l-0.497,0.355
		c-0.949,0.541-1.533,1.352-1.887,1.918l-0.9,2.123l-0.976,1.891l-0.397,1.238l-0.981,1.527l-0.056,0.096
		c-0.021,0.037-0.051,0.071-0.078,0.11c-0.086,0.121-0.203,0.271-0.279,0.45l-0.884,2.113l-0.702,1.836l0.271,0.447
		C187.116,302.067,187.901,302.516,188.764,302.516z"/>
	<path fill="#38A8DB" d="M229.712,227.473l1.914,2.496l0.106,0.117c0.065,0.057,0.127,0.142,0.192,0.221
		c0.127,0.164,0.26,0.324,0.465,0.509l1.506,1.188l0.315,0.393l0.105,0.116c0.038,0.035,0.062,0.075,0.092,0.112
		c0.107,0.151,0.232,0.309,0.427,0.495l1.362,1.273l4.748,4.096l2.32,2.419l0.747,0.583l1.548,1.693l2.361,2.091l1.256,0.6
		l2.875,3.388l2.139,2.138l0.964,0.571l1.032,1.29l5.237,4.684l0.931,0.647l1.275,1.543c0.023,0.031,0.051,0.073,0.081,0.109
		c0.107,0.155,0.224,0.306,0.336,0.408l0.546,0.395l1.504,1.285l0.787,0.862l1.423,1.333l1.068,0.757l1.417,1.21l1.054,0.608
		l0.947,0.772l0.267,0.192c0.463,0.345,1.037,0.771,1.792,0.829c0.249,0.024,0.521,0.034,0.791,0.034
		c0.903,0,1.789-0.11,1.827-0.111l0.303-0.039l1.711-1.366l0.116-0.108c0.062-0.064,0.14-0.124,0.218-0.186
		c0.17-0.133,0.33-0.272,0.455-0.404l1.66-2.03l0.639-0.941l1.261-1.461l0.713-0.515l1.415-1.243
		c0.187-0.196,0.493-0.522,0.667-0.713l0.365-0.382l0.766-1.099l0.404-0.951l0.561-0.706l1.386-1.482l0.681-0.607l1.834-1.435
		l0.861-1.027l1.609-1.577l0.519-1.068l1.472-1.344c0.671-0.294,1.214-0.743,1.698-1.416l0.707-0.98l0.505-0.434l1.578-1.788
		c0.512-0.308,1.163-0.838,1.661-1.68l0.594-0.929c0.332-0.645,0.639-1.302,0.686-2.186c0.087-1.06-0.607-2.1-1.25-2.83
		l-1.489-1.518l-1.221-0.903l-1.658-1.43c-0.916-0.701-1.965-0.951-3.473-0.829l-0.254,0.022l-0.732,0.44
		c-0.406,0.22-0.683,0.519-0.886,0.734l-1.233,1.314l-1.908,1.656l-2.618,3.166l-1.598,1.7l-2.168,2.437l-0.327,0.178
		c-0.281,0.15-0.662,0.388-0.952,0.681l-1.058,0.876l-2.092,2.476l-2.28,2.298l-0.463,0.565l-0.984-0.032l-1.771-1.592l-0.941-0.649
		l-3.262-3.418l-0.658-0.619l-1.292-1.572l-0.379-0.417l0.095-0.698l0.609-0.748l1.337-1.303l0.214-0.137
		c0.417-0.267,0.762-0.638,1.06-0.948l0.983-1.321l0.364-0.898l1.78-1.897l0.034-0.019c0.548-0.255,1.085-0.652,1.56-1.157
		l0.668-0.712l0.649-1.227l1.341-1.552l0.486-0.629l0.899-0.835l0.552-0.589c0.232-0.249,0.486-0.537,0.624-0.887
		c0.586-1.188,0.535-2.402-0.136-3.364c-0.171-0.34-0.438-0.59-0.657-0.793l-1.489-1.394l-0.77-0.849l-1.875-1.639
		c-0.918-0.861-2.114-1.268-3.447-1.151l-0.311,0.031l-1.058,0.805c-0.319,0.199-0.513,0.454-0.644,0.625
		c-0.029,0.039-0.055,0.08-0.089,0.118l-1.335,1.418l-1.954,2.211l-0.267,0.205c-0.345,0.225-0.854,0.608-1.243,1.018l-0.728,0.777
		l-0.58,0.861l-1.383,1.242l-0.479,0.399c-0.352,0.215-0.635,0.518-0.889,0.79l-0.842,1.029l-0.446,0.699l-0.192,0.134l-1.698,1.901
		l-0.499,0.38l-0.762,0.056l-2.035-1.789l-0.643-0.608l-1.1-0.649l-1.396-1.088l-0.516-0.595l-1.591-1.266l-0.689-0.875
		l-0.472-0.516l0.038-0.679l1.967-2.32l1.322-0.942c0.41-0.268,0.808-0.677,1.125-1.158l1.491-1.842l0.729-0.655l1.612-1.995
		l0.579-0.838c0.472-0.411,0.912-0.972,1.261-1.606l1.511-1.375l0.611-0.415l1.626-1.578l0.18-0.099
		c0.432-0.276,0.811-0.687,1.113-1.014l1.212-1.292l0.898-1.487l-0.004-0.311l-0.049-0.396c-0.394-1.397-0.941-2.332-1.716-2.895
		l-1.613-1.06l-0.641-0.703l-0.275-0.398c-0.172-0.276-0.368-0.583-0.698-0.886l-1.021-1.088l-0.256-0.237
		c-0.298-0.285-0.607-0.574-1.038-0.855l-0.449-0.42l-0.454,0.011c-1.003,0.032-1.944,0.526-2.538,1.329l-1.714,1.828l-0.889,0.816
		l-2.199,2.217l-1.402,1.247l-0.281,0.182c-0.404,0.29-0.907,0.65-1.228,1.168l-0.666,0.954l-1.762,2.119
		c-0.628,0.301-1.054,0.75-1.473,1.199l-0.896,0.956l-0.878,1.07l-1.277,1.725l-0.182,0.128c-0.31,0.179-0.738,0.48-1.005,0.766
		l-1.037,1.107l-0.558,0.717l-1.502,1.476l-0.359,0.379l-1.402,1.875l-0.649,0.574c-0.038,0.04-0.078,0.062-0.112,0.085
		c-0.116,0.083-0.277,0.197-0.476,0.414l-1.151,1.353l-0.681,0.988l-0.664,0.838l-0.07,0.101c-0.065,0.104-0.142,0.211-0.22,0.315
		c-0.229,0.315-0.484,0.668-0.611,1.102l-0.032,0.133c-0.182,1.063-0.071,2.466-0.067,2.522L229.712,227.473z"/>
	<path fill="#38A8DB" d="M288.348,196.457l0.296,1.941l0.334,0.936l0.198,1.639l0.025,0.145c0.085,0.355,0.178,0.755,0.362,1.15
		l0.738,2.013l0.53,1.053l0.872,1.312l0.573,1.126l0.613,0.807l0.884,1.721l0.517,0.824l0.647,1.266
		c0.376,0.731,0.888,1.231,1.269,1.559l1.523,1.414l0.824,0.617l1.38,1.391l1.047,0.614l0.808,0.894
		c0.567,0.608,1.085,0.869,1.618,1.104l0.802,0.553c0.658,0.483,1.335,0.772,2.117,0.902l1.466,0.991l1.128,0.41l1.02,0.574
		c0.708,0.397,1.421,0.436,1.943,0.466l1.792,0.696l1.565,0.438l3.183,0.435c0.187,0.031,0.324,0.049,0.501,0.049l1.765-0.095
		l0.076-0.002c0.708,0.139,1.451,0.062,2.09-0.037l3.962-0.744l2.244-0.287c0.37-0.008,0.698-0.068,0.941-0.108l2.743-0.803
		l0.952-0.475l1.651-0.657l0.821-0.247c0.24-0.018,0.581-0.074,0.928-0.234l0.442-0.139l3.793-1.924
		c0.436-0.222,0.854-0.447,1.205-0.754l1.927-1.714l2.96-3.144l2.356-2.999l0.541-0.986l0.281-0.284
		c0.239-0.241,0.472-0.489,0.637-0.716l1.011-1.51l1.593-2.231c0.377-0.606,0.635-1.236,0.762-1.849l0.271-1.255l1.043-3.217
		l0.66-3.538l-0.005-0.23c0.018-0.13,0.039-0.275,0.062-0.419c0.03-0.208,0.06-0.417,0.087-0.697l0.029-1.567l-0.082-0.894
		l0.188-1.642c0.097-0.212,0.118-0.411,0.105-0.58l0.029-0.877l-0.18-1.877c0-0.226-0.002-0.557-0.14-0.904l-0.773-2.846
		l-0.836-2.735c0.027-0.904-0.338-1.746-0.675-2.392l-0.981-1.538l-0.095-0.213c-0.237-0.653-0.462-1.27-1.039-1.933l-0.173-0.408
		c-0.03-0.062-0.047-0.131-0.072-0.2c-0.063-0.198-0.133-0.405-0.277-0.682l-0.907-1.551l-0.724-0.998l-1.324-1.613l-0.893-0.742
		l-1.159-1.541l-0.655-0.623l-1.123-1.257l-0.163-0.146c-0.047-0.04-0.105-0.099-0.169-0.16c-0.138-0.139-0.281-0.272-0.343-0.315
		l-0.522-0.432l-2.536-1.608l-1.779-0.94c-0.583-0.551-1.167-0.948-1.811-1.223l-1.711-0.683l-2.38-0.705l-2.999-1.103l-1.193-0.386
		l-1.895-0.313l-3.213-0.203l-0.519-0.105c-0.406-0.07-0.836-0.062-1.233-0.051l-5.785,0.78l-2.151,0.542l-1.112,0.389l-1.239,0.33
		c-0.548,0.155-1.112,0.345-1.591,0.689l-2.398,1.127l-0.772,0.396l-0.279,0.078c-0.496,0.116-0.945,0.335-1.412,0.697l-2.346,1.489
		l-0.635,0.32c-0.119,0.065-0.283,0.176-0.444,0.297c-0.06,0.042-0.118,0.088-0.146,0.107l-1.936,1.307l-0.7,0.541l-0.831,0.521
		c-0.444,0.23-0.901,0.616-1.485,1.293l-1.466,1.863l-1.776,2.55l-0.863,1.039l-2.185,3.51c-0.208,0.372-0.343,0.793-0.426,1.048
		l-0.975,2.808l-0.229,0.716c-0.092,0.278-0.146,0.462-0.19,0.822l-0.994,4.315l-0.305,2.911l0.3,6.662L288.348,196.457z
		 M303.763,189.69c0.08-0.474,0.171-1.01,0.118-1.598l-0.086-1.255l0.124-1.288l0.303-1.688l1.339-2.638l1.738-2.743l0.341-0.238
		l1.809-1.854l0.782-0.66l1.57-0.894l0.387-0.203c0.332-0.169,0.744-0.378,1.043-0.641l0.332-0.238l0.148-0.035
		c0.414-0.095,0.755-0.301,1.029-0.47c0.085-0.055,0.167-0.104,0.246-0.148l2.045-0.849l1.005-0.59l2.729-0.268l3.115,0.621
		l2.084,0.288l2.925,0.696l0.945,0.415l1.5,1.101l0.816,0.368l1.498,1.332l0.898,0.534l1.402,1.37l0.533,0.873l1.233,1.551
		l0.053,0.34c0.032,0.11,0.053,0.205,0.074,0.291c0.063,0.268,0.129,0.543,0.332,0.939l1.216,2.371l0.905,2.15l0.669,2.623
		l0.355,0.755l-0.129,1.697l0.169,0.923l-0.056,1.015l-0.374,2.682l-0.884,1.628l-1.098,2.559l-1.836,2.809l-0.125,0.126
		c-0.04,0.037-0.087,0.069-0.134,0.107c-0.182,0.143-0.45,0.354-0.657,0.677l-0.878,1.14l-3.365,2.373l-1.802,0.833l-0.923,0.375
		l-1.946,0.516l-1.02,0.492c-0.434,0.013-0.852,0.117-1.194,0.199l-1.69,0.374l-3.031-0.193l-1.689-0.492
		c-0.669-0.489-1.379-0.637-1.95-0.751l-1.02-0.272l-0.44-0.244l-0.196-0.088c-0.083-0.025-0.172-0.067-0.265-0.111
		c-0.167-0.074-0.336-0.146-0.457-0.186l-1.607-0.583l-0.544-0.325l-1.277-1.114l-0.571-0.769l-2.426-2.44l-0.776-1.521
		l-0.283-0.775c-0.036-0.151-0.074-0.307-0.108-0.368l-0.323-0.83l-0.821-1.086l-0.228-0.913l-0.876-1.955l-0.248-0.982
		l-0.412-2.137l-0.112-0.753l-0.017-1.727L303.763,189.69z"/>
	<path fill="#38A8DB" d="M366.495,143.301l0.055,1.154c0.049,0.373,0.11,0.882,0.277,1.34l0.44,2.237l0.017,0.13
		c-0.076,0.747-0.017,1.377,0.194,2.151l0.299,1.034l0.226,1.129l0.056,1.777l0.238,1.288l-0.019,1.926l0.009,0.073
		c0.004,0.052,0,0.096-0.007,0.147c-0.009,0.185-0.017,0.388,0.017,0.658l0.649,2.318l0.127,1l0.098,1.48l0.11,0.814l0.735,3.024
		l0.176,0.807l-0.152,2.351l0.182,0.761l-0.104,1.08c-0.013,0.726,0.065,1.364,0.277,2.125l0.107,0.326l0.438,3.494l0.478,1.685
		l0.144,3.241l0.295,2.951v0.716l0.008,0.135c0.011,0.087,0.005,0.189,0.002,0.292c-0.002,0.211-0.002,0.423,0.028,0.655l0.3,1.659
		l0.517,1.23l0.309,1.788l0.307,1.047l0.147,1.776l-0.111,0.441c-0.036,0.493-0.07,1.006-0.018,1.465l0.201,1.584l0.651,2.986
		c0.214,0.894,0.819,1.776,1.912,2.742l0.301,0.23l0.53,0.107c0.263,0.053,0.515,0.078,0.769,0.078c0.397,0,0.797-0.064,1.225-0.194
		l1.265-0.333l2.993-0.551l0.976-0.297l1.736-0.138l0.818,0.057l2.026-0.107l0.305-0.468c0.537-0.839,0.764-1.646,0.653-2.479
		l-0.211-1.067l0.088-1.065c0.068-0.543-0.022-1.251-0.254-1.843l-0.124-1.369v-0.658c0.046-0.503-0.023-1.067-0.194-1.538
		l-0.27-0.98l0.02-0.208c0.063-0.423,0.011-0.842-0.027-1.159l-0.187-1.419l-0.188-0.859l-0.069-1.957l-0.1-0.785l-0.717-2.886
		l-0.021-0.549l0.41-0.531c0.622,0.098,1.261,0.043,1.932-0.145l0.729-0.159l0.19,0.027c0.586,0.043,1.277-0.045,1.798-0.22
		l1.282-0.41l1.809-0.147l2.356-0.652l1.417-0.266c0.793-0.099,1.552-0.466,1.935-0.682l0.303-0.166l1.64-0.452
		c0.254-0.051,0.45-0.169,0.603-0.267l0.863-0.29l1.88-1.072l0.333-0.134c0.281-0.138,0.634-0.306,0.973-0.596l0.846-0.701
		l0.119-0.08c0.606-0.405,1.203-1.025,1.557-1.608l0.52-0.765l0.087-0.074c0.688-0.47,1.204-0.979,1.523-1.507l0.858-1.319
		l0.252-0.44c0.063-0.13,0.144-0.286,0.229-0.439c0.097-0.18,0.192-0.364,0.307-0.599l0.679-1.691l0.597-2.316l0.22-1.099
		l0.183-2.212l0.084-0.562c0.078-0.278,0.133-0.674,0.114-0.99l0.042-1.012c0.023-0.629-0.019-1.013-0.19-1.604l-0.05-1.224
		l-0.4-1.028c-0.002-0.668-0.093-1.338-0.272-1.993l-0.328-1.208l-0.404-0.992l-0.543-1.615l-0.005-0.063
		c-0.095-0.747-0.292-1.397-0.639-2.021l-0.176-0.256c-0.215-0.386-0.494-0.842-0.926-1.291l-1.337-1.659l-0.836-0.966l-1.859-1.631
		l-2.682-1.907l-0.385-0.22l-0.315-0.136c-0.196-0.08-0.465-0.19-0.729-0.244l-1.739-0.4l-3.652-0.784
		c-0.216-0.063-0.415-0.075-0.573-0.083c-0.07-0.002-0.14-0.002-0.214-0.017l-0.104-0.02h-1.473l-1.11-0.134l-2.039,0.083
		l-1.169-0.048l-2.215,0.283l-2.293,0.108l-1.225,0.154l-1.855,0.073l-1.06-0.059l-1.872,0.146l-1.216-0.031l-2.521,0.42
		l-0.789,0.527l-2.052,0.181l-2.039,0.079l-0.998,0.208l-2.086,0.177c-1,0.124-1.959,0.774-2.861,1.934l-0.176,0.229l-0.203,1.431
		l0.008,0.07C366.499,142.896,366.47,143.102,366.495,143.301z M384.106,151.143l0.858-0.234l0.811-0.349l2.817-0.109l0.643,0.058
		c0.355,0.094,0.753,0.121,0.998,0.1l1.783-0.052l2.473,0.176l2.104,0.854l0.923,0.583l1.324,1.089l0.837,2.544l0.146,1.827
		l0.241,1.288l-0.341,2.917l0.1,0.762l-0.595,1.119l-2.386,1.855l-0.789,0.564l-1.709,0.664l-1.104-0.03l-1.225,0.335l-0.568,0.001
		l-0.065-0.001l-0.07,0.005l-0.439-0.009c-0.106,0-0.199,0.005-0.275,0.015l-0.729,0.181l-2.226,0.364l-1.267-0.104l-0.522-0.404
		c0.023-0.4,0.033-0.784-0.125-1.299l-0.39-1.618l-0.289-0.969l-0.326-1.961l-0.036-0.904l-0.343-1.558l0.011-0.074
		c0.125-0.793,0.04-1.432-0.029-1.995l-0.301-2.36l-0.057-1.868l-0.182-0.993L384.106,151.143z"/>
	<path fill="#38A8DB" d="M429.821,200.29l0.201,0.237l2.086,0.666l0.152,0.038c0.087,0.015,0.182,0.048,0.281,0.08
		c0.198,0.064,0.399,0.125,0.577,0.155l2.614,0.262l1.141,0.009l1.914,0.245l0.82,0.308l1.823,0.496l1.487,0.252l1.453,0.033
		l0.899-0.19l0.896,0.078l1.999,0.334l0.882,0.229l2.213,0.736l1.328,0.149l2.204,0.469l1.174-0.155l1.941,0.48
		c0.618,0.402,1.275,0.599,2.113,0.636l1.212,0.042l0.641,0.185l2.361,0.325c0.486,0.229,1.203,0.463,2.096,0.463
		c0.091,0,0.178-0.004,0.227-0.005l1.098-0.021c0.721-0.078,1.434-0.19,2.204-0.637c0.931-0.515,1.411-1.667,1.662-2.602
		l0.446-2.081l0.078-1.522l0.271-2.172c0.078-1.145-0.303-2.177-1.233-3.353l-0.154-0.198l-0.769-0.364
		c-0.401-0.215-0.786-0.279-1.104-0.335l-1.779-0.299l-2.432-0.676l-4.089-0.43l-2.298-0.39l-3.231-0.462l-0.323-0.173
		c-0.229-0.124-0.669-0.334-1.101-0.422l-1.313-0.395l-3.219-0.375l-3.176-0.625l-0.731-0.077l-0.514-0.839l0.345-2.355l0.023-1.14
		l1.042-4.609l0.155-0.891l0.592-1.948l0.142-0.542l0.635-0.311l0.956,0.099l1.827,0.394l0.235,0.102
		c0.452,0.199,0.956,0.286,1.375,0.354l1.811,0.099l0.778-0.199l2.576,0.436l0.025,0.017c0.519,0.315,1.148,0.545,1.827,0.659
		l1.128,0.191l1.216-0.164l2.035,0.259l0.795,0.056l1.193,0.287l0.804,0.137c0.265,0.044,0.749,0.097,1.072,0.025
		c1.315-0.167,2.304-0.88,2.735-1.972c0.189-0.336,0.249-0.707,0.291-0.983l0.343-2.008l0.286-1.122l0.325-2.462
		c0.214-1.236-0.127-2.481-0.949-3.508l-0.197-0.243l-1.254-0.435c-0.341-0.16-0.66-0.177-0.878-0.188
		c-0.047-0.002-0.098-0.006-0.146-0.012l-1.919-0.325l-2.926-0.41l-0.318-0.108c-0.379-0.168-0.988-0.38-1.534-0.472l-1.145-0.195
		l-0.945,0.011l-1.798-0.467l-0.597-0.18c-0.374-0.172-0.778-0.241-1.148-0.302l-1.396-0.143l-0.758,0.022l-0.22-0.082l-2.523-0.365
		l-0.59-0.204l-0.468-0.606l0.368-2.685l0.167-1.007l-0.087-1.144l0.136-1.764l0.209-0.757l0.176-2.023l0.347-1.061l0.172-0.678
		l0.588-0.345l3.021,0.358l1.512,0.579c0.451,0.196,0.992,0.299,1.563,0.299h0.021l2.366,0.227l0.95,0.24l2.553,0.249l1.016,0.014
		c0.604,0.17,1.335,0.226,2.039,0.167l1.984,0.496l0.685,0.279l2.209,0.485l0.178,0.091c0.463,0.203,0.973,0.289,1.468,0.371
		l1.867,0.318l1.62-0.095l0.261-0.185l0.296-0.25c0.943-1.101,1.422-2.075,1.462-3.028l-0.005-1.932l0.229-0.928l0.174-0.435
		c0.133-0.299,0.285-0.634,0.359-1.081l0.341-1.451l0.06-0.363c0.071-0.421,0.142-0.823,0.133-1.326l0.104-0.609l-0.26-0.367
		c-0.58-0.814-1.513-1.323-2.516-1.38l-2.466-0.413l-1.174-0.296l-3.061-0.604l-1.813-0.479l-0.307-0.131
		c-0.465-0.18-0.998-0.381-1.653-0.381H467l-1.158-0.025l-2.744-0.302c-0.604-0.359-1.221-0.462-1.811-0.562l-1.297-0.219
		l-1.379-0.139l-2.145-0.113l-0.201-0.079c-0.319-0.164-0.81-0.35-1.197-0.415l-1.497-0.25l-0.903-0.072l-2.052-0.434l-0.787-0.133
		l-2.073-0.088l-0.842-0.229c-0.053-0.007-0.091-0.03-0.133-0.043c-0.174-0.064-0.343-0.126-0.604-0.168l-1.765-0.21l-1.199-0.022
		l-1.063-0.09l-0.199-0.001c-0.104,0-0.212-0.005-0.315-0.009c-0.479-0.024-0.916-0.008-1.252,0.095l-0.129,0.048
		c-0.985,0.441-2.092,1.305-2.141,1.34l-0.237,0.188l-1.025,2.976l-0.036,0.15c-0.015,0.086-0.049,0.184-0.08,0.281
		c-0.063,0.202-0.125,0.401-0.167,0.673l-0.157,1.915l-0.149,0.479l-0.038,0.146c-0.011,0.052-0.027,0.095-0.045,0.139
		c-0.063,0.175-0.129,0.366-0.176,0.635l-0.307,1.838l-0.793,6.218l-0.729,3.276l-0.078,0.938l-0.55,2.234l-0.459,3.28l0.213,1.215
		l-1.23,4.27l-0.639,3.132l0.095,0.952l-0.506,1.575l-1.009,6.952l-0.021,1.134l-0.585,1.913c-0.011,0.04-0.028,0.087-0.047,0.129
		c-0.065,0.178-0.125,0.358-0.15,0.505l-0.023,0.675l-0.245,1.96l-0.281,1.138l-0.326,1.92l-0.04,1.307l-0.239,1.957l0.087,1.106
		l-0.114,1.216l-0.013,0.328c-0.031,0.574-0.071,1.29,0.294,1.954C428.838,199.139,429.781,200.246,429.821,200.29z"/>
	<path fill="#38A8DB" d="M479.501,198.436l-0.983,2.603c-0.372,0.388-0.706,0.879-0.99,1.466l-0.579,1.207l-0.686,1.922l0.194,0.853
		l0.034,0.117c0.216,0.632,0.519,1.497,1.1,2.17l0.15,0.166l0.19,0.095l1.346,1.347l0.556,0.729
		c0.157,0.195,0.328,0.327,0.493,0.436l3.703,2.879l0.602,0.476c0.314,0.289,0.695,0.476,0.996,0.625l1.438,0.693l0.378,0.358
		c0.449,0.338,0.845,0.53,1.31,0.755l1.498,0.636l0.528,0.417l2.354,1.37c0.051,0.021,0.1,0.055,0.15,0.085
		c0.213,0.132,0.501,0.306,0.864,0.38l2.641,0.803l1.51,0.536l0.142,0.039c0.194,0.042,0.362,0.071,0.535,0.102
		c0.146,0.026,0.294,0.053,0.459,0.087l0.114,0.022l0.419-0.005l2.735,0.466l2.569,0.448c0.377,0.049,0.722,0.083,1.045,0.083
		c0.275,0,0.529-0.022,0.729-0.062l1.612-0.25l0.647-0.047c0.262-0.002,0.706-0.049,1.034-0.168l1.936-0.539l2.426-1.044
		l0.595-0.289c0.069-0.04,0.146-0.077,0.224-0.116c0.233-0.117,0.527-0.259,0.774-0.494l1.324-1.072l0.865-0.564l1.352-1.19
		c0.478-0.437,0.782-0.823,0.951-1.183l0.66-1.152c0.053-0.108,0.104-0.185,0.15-0.264c0.123-0.204,0.277-0.46,0.381-0.86
		l0.125-0.428l0.272-0.557l0.263-0.272l0.111-0.13c0.375-0.534,0.549-0.888,0.758-1.608l0.829-2.256l0.364-1.441l0.211-1.215
		c0.163-0.604,0.184-1.304,0.072-2.139l-0.682-3.141l-0.768-2.418l-0.009-0.367c-0.057-0.384-0.182-0.767-0.302-1.114l-0.241-0.688
		c-0.36-0.792-0.728-1.373-1.157-1.813l-1.117-1.687l-0.033-0.104c-0.221-0.639-0.548-1.066-0.931-1.559l-1.143-1.241l-0.296-0.544
		l-0.1-0.15c-0.082-0.107-0.22-0.25-0.361-0.388c-0.06-0.057-0.121-0.117-0.203-0.212l-1.206-1.371l-1.003-0.656l-1.209-1.641
		l-2.478-2.361l-0.647-0.665l-1.078-1.702l-0.499-0.894l-0.939-2.204l0.076-1.857l0.488-1.699l0.842-1.389l1.113-1.23l1.827-0.083
		l0.301,0.062c0.073,0.009,0.139,0.031,0.203,0.048c0.151,0.042,0.327,0.091,0.556,0.105l1.422,0.187l1.009-0.012l2.398,1.163
		l1.181,0.372l1.095,0.444l1.605,1.235l0.832,0.428l2.826,1.936l1.461,1.353l1.673,1.904c0.04,0.037,0.079,0.086,0.116,0.131
		c0.17,0.201,0.402,0.475,0.772,0.655l0.22,0.079c0.897,0.212,2.808-0.085,2.868-0.099l0.487-0.086l1.256-2.113l0.29-0.409
		c0.366-0.482,0.693-1.166,0.84-1.725l0.236-0.864l0.303-0.823l0.938-1.921l0.129-0.296c0.232-0.739,0.323-1.443,0.262-2.117
		l-0.124-1.14l-0.544-0.705l-2.602-2.675l-0.698-0.336l-1.582-1.22l-0.553-0.54c-0.086-0.082-0.173-0.189-0.262-0.294
		c-0.136-0.149-0.26-0.296-0.381-0.41l-1.366-1.006l-0.812-0.411l-1.021-0.686l-1.764-1.056l-2.059-0.999l-3.38-1.438l-3.048-0.975
		l-1.422-0.263c-0.267-0.042-0.571-0.083-0.668-0.077l-1.322-0.061l-3.086-0.283l-1.036,0.09l-2.029-0.177l-0.89,0.151l-0.17,0.042
		c-0.053,0.018-0.107,0.033-0.169,0.046c-0.211,0.057-0.497,0.135-0.791,0.296l-1.087,0.473l-0.345,0.077
		c-0.546,0.124-1.104,0.249-1.616,0.583l-0.943,0.526l-0.134,0.086c-0.057,0.043-0.149,0.095-0.245,0.151
		c-0.182,0.109-0.359,0.216-0.461,0.295l-1.853,1.472l-0.4,0.213c-0.488,0.322-0.886,0.63-1.246,1.083l-0.755,0.773l-0.182,0.119
		c-0.689,0.531-1.128,1.247-1.368,1.752l-0.597,1.228l-1.032,1.723l-0.35,0.722c-0.057,0.111-0.105,0.193-0.152,0.264
		c-0.118,0.203-0.272,0.457-0.349,0.824l-0.399,1.613l-0.286,0.755c-0.158,0.328-0.247,0.805-0.258,1.127l-0.142,1.327v0.069
		c0,0.152,0.004,0.304-0.023,0.514l-0.011,0.078l0.163,3.46l0.241,0.816l0.279,1.338c0.102,0.538,0.3,1.107,0.554,1.595l0.23,0.371
		l0.239,0.996c0.1,0.491,0.288,0.807,0.444,1.062c0.049,0.075,0.1,0.154,0.176,0.309l0.853,1.494
		c0.419,0.716,0.844,1.219,1.368,1.608l1.148,1.548l0.641,0.712l0.076,0.12c0.297,0.584,0.696,0.919,0.965,1.144l1.187,1.156
		l4.909,5.288l1.375,1.721l0.669,1.048l0.937,1.854l0.104,1.002l-0.229,1.402l-0.401,0.499c-0.212,0.247-0.45,0.53-0.679,1.001
		l-0.565,1.16l-1.223,0.803l-0.945,0.042l-2.859-0.219l-1.1-0.53l-0.914-0.346l-1.125-0.248l-1.97-0.86l-0.929-0.451l-0.55-0.435
		l-1.466-0.646l-1.781-1.247l-0.561-0.351l-0.78-0.836c-0.484-0.469-1.023-0.851-1.607-1.133l-0.192-0.095l-1.371-1.168
		l-0.412-0.649l-1.146-1.486l-0.078-0.087c-0.326-0.362-0.821-0.903-1.694-0.964c-1.1-0.079-2.682,0.382-2.845,0.43L480.903,196
		l-1.121,2.033C479.684,198.153,479.579,198.275,479.501,198.436z"/>
	<path fill="#38A8DB" d="M536.009,209.194l-1.44,2.31c-0.246,0.296-0.398,0.624-0.522,0.9l-0.698,1.532l-0.254,0.974l-1.295,2.787
		l-0.651,2.186l-0.281,0.828l-0.465,2.149l-0.62,5.715c-0.055,0.543-0.04,1.026,0.055,1.56l0.187,1.77l0.029,0.194
		c0,0.005-0.004,0.015-0.004,0.027c-0.002,0.11-0.013,0.229-0.002,0.357l0.744,2.99l0.419,3.02l0.172,0.738
		c0.086,0.357,0.164,0.571,0.363,1.089l0.747,1.539l0.689,1.027l1.03,1.873l0.635,0.594l1.11,2.135
		c0.131,0.306,0.368,0.655,0.617,0.914l0.979,1.382l0.341,0.425c0.22,0.351,0.522,0.629,0.748,0.842l0.99,0.918l0.858,1.036
		l1.092,1.132c0.323,0.308,0.677,0.618,0.992,0.758l0.561,0.309l1.54,1.2l0.323,0.305c0.361,0.331,0.764,0.556,1.104,0.744
		l1.635,0.921l2.868,1.822l1.092,0.399l0.723,0.55l1.092,0.318l0.004,0.004c0.519,0.48,1.145,0.765,1.747,1.039l1.208,0.481
		l1.204,0.398l0.478-0.025c1.447-0.264,2.562-0.79,3.12-1.461l1.649-1.299l1.701-1.677l1.025-1.107l0.781-1.234
		c0.182-0.203,0.471-0.574,0.558-1.132l0.018-0.13c0.038-1.012-0.622-2.458-0.829-2.875l-0.146-0.308l-1.607-0.914
		c-0.529-0.323-1.094-0.524-1.477-0.634l-0.448-0.133l-1.522-0.86l-0.303-0.185c-0.377-0.324-0.84-0.589-1.299-0.733l-1.31-0.565
		l-2.248-1.601l-0.921-0.526l-2.375-2.208l-0.793-1l-0.729-0.45l-1.13-1.693l-0.842-0.933l-1.11-1.561l-0.065-0.222
		c-0.053-0.433-0.248-0.782-0.364-0.997l-0.858-1.847l-0.571-1.832c0.104-0.644,0.004-1.291-0.091-1.927l-0.203-0.934l0.017-1.124
		l-0.082-2.043l0.029-0.724l0.455-2.076l0.776-3.055l1.174-1.761l0.365-0.624l2.082-2.506l0.416-0.561l1.625-1.506l1.273-1.492
		l0.711-0.548l1.212-0.72l1.083-0.409l1.47-0.664l0.207-0.004c0.567-0.012,1.204-0.021,1.89-0.329l1.118-0.461l0.806-0.232
		l2.035-0.08l0.901,0.032l0.144-0.004c0.662,0.104,1.199,0.147,1.855,0.047l0.08-0.021l2.623,0.357l0.784,0.07l1.532,0.819
		l0.095,0.087c0.341,0.318,0.726,0.677,1.203,0.969l1.445,0.695l0.842,0.233l1.553,1.332l1.007,0.6l0.63,0.826l0.929,0.608
		l1.35,1.571l0.588,0.804l1.432,1.678l1.371,2.628l0.804,0.746l0.793,1.356l0.436,1.349c0.18,0.747,0.599,2.5,2.141,3.094
		l1.612,0.285l0.884-0.619c0.216-0.133,0.461-0.283,0.698-0.539l1.078-1.047l0.44-0.357c0.366-0.263,0.548-0.501,0.693-0.691
		c0.058-0.07,0.114-0.146,0.233-0.279l0.962-1.167l0.54-0.833l1.182-1.154l0.123-0.142c0.528-0.73,0.858-1.428,1.007-2.096
		l0.203-1.088l-0.273-0.874c-0.111-0.458-0.298-0.798-0.443-1.067l-2.483-4.587l-0.472-0.922l-1.547-2.003l-0.67-0.734l-1.03-1.497
		l-0.311-0.561c-0.273-0.42-0.669-0.788-1.018-1.108l-0.789-0.625l-0.14-0.195c-0.326-0.57-0.853-1.11-1.417-1.481l-0.829-0.769
		l-0.17-0.237c-0.228-0.372-0.594-0.714-0.895-0.991l-1.23-1.146l-2.247-1.6c-0.314-0.27-0.664-0.428-1-0.58l-2.119-0.934
		l-1.039-0.618l-1.842-0.812l-1.371-0.37l-1.66-0.64c-0.324-0.144-0.707-0.234-1.153-0.25l-1.88-0.351l-3.558-0.255l-0.544-0.125
		l-0.107-0.042c-0.203-0.078-0.493-0.195-0.857-0.221l-0.376-0.036c-0.769-0.124-1.536-0.089-2.295,0.126l-1.988,0.073l-1.014,0.224
		l-1.269-0.014l-0.087,0.012c-0.62,0.093-1.187,0.252-1.687,0.477l-2.034,0.535l-0.41,0.026c-0.44,0.077-0.842,0.241-1.166,0.37
		l-1.292,0.655l-1.354,0.432l-3.049,1.311l-0.766,0.483c-0.564,0.367-1.203,0.837-1.704,1.524l-1.431,1.318l-0.127,0.061
		c-0.585,0.319-1.165,0.781-1.742,1.409l-0.474,0.614l-0.415,0.25c-0.425,0.28-0.802,0.689-1.108,1.023l-0.37,0.518l-0.564,0.491
		c-0.036,0.031-0.074,0.056-0.114,0.083c-0.148,0.111-0.296,0.226-0.404,0.339l-0.478,0.529L536.009,209.194z"/>
	<path fill="#38A8DB" d="M597.002,270.907l-1.237,0.256l-1.834,0.031l-0.207-0.061c-0.474-0.095-1.038-0.208-1.769-0.116
		l-0.878,0.107c-0.467-0.111-0.998-0.229-1.559-0.229c-0.15,0-0.303,0.004-0.427,0.022l-1.312,0.132l-0.885,0.211l-2.052-0.077
		l-1.303,0.217l-1.925,0.034l-0.969-0.228l-3.08-0.08l-2.303,0.112l-0.804,0.17l-1.824-0.203c-0.775-0.324-1.432-0.363-1.896-0.368
		l-0.963-0.111l-0.129,0.016c-0.144,0.017-0.26,0.023-0.363,0.023l-0.216-0.004l-2.596,0.34l-0.846-0.053h-0.058
		c-0.352,0.018-1.561,0.109-2.189,0.715l-0.105,0.116c-0.493,0.637-0.508,1.575-0.034,2.573l1.792,3.747l1.146,2.017l1.098,2.91
		l0.383,0.804c0.057,0.121,0.121,0.222,0.214,0.373l0.363,1.184l1.164,0.533c0.816,0.288,1.557,0.441,2.199,0.453h0.074l2.137-0.286
		l0.448,0.021c0.63,0,1.108-0.055,1.62-0.184l0.933-0.291c0.535,0.087,0.996,0.078,1.819-0.06l1.294-0.264l0.713,0.039l0.952,0.535
		l0.104,0.499c0.056,0.455,0.225,0.811,0.362,1.092l0.77,1.608l0.461,0.777l0.611,1.468l0.053,0.265
		c0.078,0.393,0.174,0.84,0.357,1.227l0.72,1.727l1.074,2.044l0.992,1.062l0.954,1.993l0.9,2.31l0.811,1.693l0.448,1.14l0.14,0.766
		l-0.053,1.25l-1.703,2.163l-3.883,4.178l-0.021,0.049c-0.59,0.686-0.988,1.635-1.146,2.742l-0.013,0.133
		c-0.017,0.916,0.182,1.708,0.569,2.296l0.512,1.271c0.16,0.335,0.338,0.71,0.622,1.077l1.557,2.682l0.381,1.001l1.063,2.229
		l0.415,1.541l2.096,0.353l0.315-0.148l0.423-0.227c0.394-0.293,0.838-0.623,1.229-1.127l0.22-0.335l1.29-1.281l0.646-0.699
		l3.058-4.167l0.373-0.257c0.262-0.224,0.478-0.462,0.706-0.721l3.82-4.919l1.14-1.776l3.374-4.382l0.148-0.122
		c0.438-0.331,0.708-0.596,1.011-0.982l0.755-1.211l0.713-0.612l2.342-2.416l1.462-1.678l0.596-0.889l1.257-1.548l0.093-0.091
		c0.506-0.367,0.863-0.789,1.13-1.298l0.622-1.034l0.691-0.884l1.038-1.636l0.64-0.555l1.541-1.685l0.644-0.766l1.377-1.438
		l0.762-0.972l0.406-0.469c0.639-0.662,0.929-1.377,1.144-1.98l1.716-2.438l1.451-1.357l0.778-0.799l1.261-1.483l0.584-1.125
		l1.167-1.376l0.573-1.104l1.386-1.473l1.967-2.86l-1.256-0.753l-0.195-0.09c-0.664-0.238-1.508-0.33-2.221-0.263l-1.984-0.237
		l-0.871,0.106l-0.965-0.053c-0.186-0.019-0.389-0.028-0.604-0.028c-0.383,0-0.963,0.035-1.424,0.167l-0.232,0.048l-2.022-0.078
		l-3.128,0.139l-0.649-0.052c-0.394,0-0.684,0.035-0.983,0.073l-2.663,0.328l-2.828-0.284l-3.046-0.1l-1.834-0.142l-0.784-0.139
		c-0.419-0.062-0.943-0.064-1.375,0.016l-1.455,0.127l-1.039,0.26l-1.897,0.106l-2.572-0.233l-0.456-0.16l-0.146-0.042
		c-0.474-0.095-1.054-0.158-1.604-0.164L597.002,270.907z M600.439,285.077l0.776-0.097l1.889-0.04l1.127-0.134l2.189,0.12
		l3.274-0.223c-0.275,0.25-0.582,0.585-0.88,0.975l-0.668,1.034l-0.25,0.242c-0.271,0.224-0.434,0.452-0.544,0.601
		c-0.025,0.042-0.051,0.081-0.084,0.116l-0.929,1.352l-1.901,1.723l-0.519,0.333l-0.778,0.718l-1.197,1.52l-2.079,2.78l-0.362,0.261
		h-0.086l-1.054-2.726l-0.668-0.781l-0.749-1.764l-1.028-2.162l-0.552-0.766l-0.711-2.123l-0.271-0.353l0.351,0.009l3.624-0.304
		L600.439,285.077z"/>
	<path fill="#38A8DB" d="M408.133,484.961c-0.04,3.065,2.411,5.578,5.474,5.618c3.061,0.04,5.578-2.411,5.616-5.477
		c0.04-3.061-2.414-5.575-5.475-5.615C410.686,479.449,408.171,481.898,408.133,484.961z"/>
	<path fill="#38A8DB" d="M416.511,264.748c3.059,0.039,5.578-2.411,5.616-5.473c0.04-3.062-2.414-5.577-5.473-5.617
		c-3.064-0.039-5.577,2.414-5.617,5.474C410.999,262.194,413.448,264.709,416.511,264.748z"/>
	<circle fill="#38A8DB" cx="496" cy="293.303" r="5.547"/>
	<path fill="#38A8DB" d="M336.383,285.703c-3.062-0.04-5.575,2.412-5.615,5.474c-0.038,3.064,2.411,5.58,5.472,5.619
		c3.067,0.04,5.58-2.411,5.62-5.477C341.899,288.256,339.45,285.743,336.383,285.703z"/>
	<circle fill="#38A8DB" cx="493.946" cy="452.987" r="5.545"/>
	<path fill="#38A8DB" d="M602.525,566.208l-0.415-0.281c0,0-0.298-0.201-0.874-0.593c-0.566-0.391-1.374-0.998-2.284-1.838
		c-0.907-0.84-1.87-1.934-2.665-3.306c-0.358-0.597-0.666-1.268-0.931-1.995c-1.472-2.257-2.605-4.624-3.387-7.117
		c-4.922-15.725,4.884-33.469,14.364-50.63c0.631-1.14,1.266-2.292,1.897-3.445c-2.551-0.609-4.975-1.335-7.21-2.223
		c-0.03,0.053-0.058,0.104-0.087,0.156c-1.335,2.38-2.761,4.804-4.156,7.208c-5.633,9.65-10.79,19.069-14.204,28.363
		c-1.709,4.649-3.003,9.281-3.659,13.888c-0.657,4.591-0.632,9.193,0.25,13.411c0.888,4.215,2.62,7.938,4.621,10.698
		c1.98,2.794,4.076,4.731,5.809,6.098c1.745,1.364,3.144,2.228,4.087,2.78c0.949,0.53,1.438,0.806,1.438,0.806
		c3.158,1.764,7.222,0.858,9.288-2.191C606.59,572.773,605.748,568.391,602.525,566.208z"/>
	<path fill="#38A8DB" d="M316.42,259.902c-27.092,23.836-44.571,56.442-49.388,91.994c-7.769,2.396-13.472,9.588-13.581,18.138
		c-0.11,8.554,5.406,15.892,13.109,18.485c1.288,11.774,3.973,23.261,7.931,34.251c-1.589,2.326-3.12,4.708-4.551,7.166
		c-1.275,2.075-2.39,4.239-3.568,6.393c-1.08,2.187-2.227,4.367-3.21,6.618c-1.116,2.489-2.15,5.02-3.12,7.574
		c4.977,7.044,10.25,15.282,15.923,24.151l0.08,0.127c1.353,2.113,2.742,4.285,4.156,6.481c0.546-1.155,1.081-2.306,1.603-3.444
		c3.19-6.972,6.954-13.579,11.111-19.688c2.037-2.995,4.167-5.868,6.375-8.601c0.974-1.206,1.964-2.38,2.965-3.528
		c2.334-2.68,4.735-5.208,7.188-7.558c5.974-5.724,12.238-10.415,18.479-13.793c3.146-1.705,6.286-3.065,9.381-4.067
		c1.676-0.544,3.342-0.992,4.985-1.313c2.239-0.436,4.441-0.664,6.591-0.664c0.039,0,0.075,0,0.114,0
		c1.975,0.008,3.866,0.215,5.68,0.599c8.513,1.8,15.198,7.688,19.519,17.316c0.069,0.157,0.105,0.317,0.123,0.479
		c-0.015-0.011-0.027-0.02-0.042-0.027c-1.944-1.231-3.835-2.543-5.656-3.937c-2.675-4.14-5.986-7.167-9.854-9.018h-0.001
		c-2.954-1.413-6.223-2.148-9.781-2.164c-0.034,0-0.071,0-0.105,0c-1.497,0-3.026,0.132-4.576,0.362
		c-1.7,0.254-3.43,0.655-5.177,1.174c-3.125,0.929-6.31,2.266-9.51,3.977c-6.195,3.311-12.438,8.01-18.393,13.795
		c-2.427,2.358-4.809,4.891-7.116,7.59c-0.984,1.15-1.953,2.337-2.911,3.545c-2.17,2.739-4.264,5.618-6.263,8.621
		c-3.782,5.688-7.223,11.81-10.171,18.252c-0.799,1.745-1.633,3.514-2.487,5.293c1.896,2.916,3.823,5.842,5.756,8.699
		c0.085-0.218,0.183-0.439,0.292-0.66c0.896-1.789,2.291-2.908,3.118-2.493c0.827,0.412,0.771,2.197-0.123,3.991
		c-0.4,0.802-0.902,1.457-1.407,1.912c0.678,0.983,1.355,1.956,2.031,2.915c0.012-0.025,0.024-0.049,0.036-0.072
		c1.043-2.061,2.059-4.361,3.08-6.545c0.924-1.971,1.691-3.888,2.703-5.82c0.369-0.691,0.745-1.373,1.124-2.05
		c0.282,0.146,0.623,0.165,0.996,0.074c1.02-0.245,2.276-1.299,3.237-2.845c1.217-1.95,1.525-3.985,0.807-4.836
		c-0.068-0.08-0.141-0.158-0.228-0.218c0.63-0.933,1.268-1.847,1.916-2.737c2.545,2.739,5.194,5.396,7.956,7.956
		c27.168,25.168,62.538,39.296,99.598,39.77c39.906,0.516,77.628-14.546,106.211-42.401c18.254-17.791,31.376-39.446,38.617-63.168
		c1.123-0.14,2.248-0.283,3.362-0.402c6.403-0.657,12.655-0.933,18.396-0.613c4.719,0.256,9.044,0.952,12.694,2.048
		c5.928-2.705,12.322-4.746,18.728-6.141c-8.542-7.037-23.2-14.163-48.261-16.854c-3.205-0.345-6.583-0.615-10.137-0.804
		c-1.426-0.076-2.881-0.14-4.364-0.188c-3.265-0.107-6.677-0.146-10.232-0.114c-7.222,0.065-15.055,0.434-23.553,1.159
		c-3.452,0.294-7.014,0.647-10.688,1.063c-0.312,0.036-0.619,0.068-0.935,0.104c-1.454,0.169-2.89,0.309-4.307,0.418
		c-3.686,0.292-7.229,0.371-10.653,0.279c-16.421-0.436-29.821-5.23-39.933-14.368c-24.103-21.786-23.537-61.668-23.266-80.834
		c0.023-1.668,0.044-3.156,0.044-4.435c0-0.071,0.012-0.138,0.021-0.206c1.082,0.138,2.16,0.29,3.227,0.473
		c-0.002,1.232-0.021,2.641-0.044,4.215c-0.265,18.688-0.815,57.577,22.196,78.376c9.692,8.761,22.689,13.283,38.723,13.552
		c3.382,0.058,6.896-0.074,10.546-0.397c1.018-0.091,2.034-0.18,3.073-0.301c0.693-0.08,1.415-0.156,2.13-0.234
		c3.311-0.364,6.834-0.704,10.528-1.001c7.286-0.583,15.207-0.983,23.381-1.023c3.366-0.015,6.771,0.029,10.191,0.15
		c1.45,0.053,2.901,0.116,4.353,0.196c3.382,0.187,6.761,0.453,10.118,0.811c20.213,2.143,39.463,7.619,51.895,19.163
		c4.562-0.801,9.078-1.272,13.378-1.423c1.061-0.038,2.121-0.058,3.153-0.058c1.005,0,1.99,0.02,2.959,0.053
		c-0.201-0.434-0.401-0.867-0.616-1.298c-2.128-4.305-4.936-8.455-8.24-12.154c0.025-0.023,0.062-0.034,0.086-0.062
		c0.92-1.058-0.392-3.71-2.93-5.918c-2.479-2.16-5.195-3.093-6.183-2.151c-1.264-0.925-2.542-1.811-3.841-2.629
		c-4.38-2.735-8.862-4.878-13.345-6.6c0.072-1.315-2.104-3.037-5.112-3.973c-3.002-0.933-5.74-0.751-6.433,0.368
		c-0.521-0.131-1.043-0.271-1.561-0.396c-5.418-1.271-10.746-2.145-15.993-2.765c-0.218-1.29-2.653-2.555-5.747-2.917
		c-0.121-0.013-0.239-0.022-0.358-0.033c-0.979-37.695-15.884-73.105-42.352-100.265c-27.855-28.582-65.18-44.605-105.085-45.119
		C379.947,222.23,344.227,235.44,316.42,259.902z M292.093,481.683c-1.508,2.72-3.75,4.363-5.004,3.67
		c-1.259-0.698-1.056-3.471,0.454-6.191c1.507-2.722,3.746-4.367,5.005-3.67C293.805,476.186,293.602,478.956,292.093,481.683z
		 M301.354,475.092c-1.257,1.557-2.859,2.35-3.579,1.772c-0.719-0.582-0.283-2.316,0.974-3.875c1.258-1.559,2.859-2.353,3.578-1.772
		C303.046,471.799,302.612,473.53,301.354,475.092z M303.581,464.457c-1.23,1.404-2.632,2.36-3.793,2.705
		c-0.774,0.23-1.443,0.196-1.876-0.182c-0.547-0.479-0.611-1.398-0.281-2.492c0.323-1.068,1.027-2.304,2.041-3.461
		c2.05-2.341,4.588-3.473,5.669-2.525C306.422,459.45,305.635,462.115,303.581,464.457z M623.336,399.876
		c0.749-0.684,2.551,0.082,4.032,1.702c1.476,1.62,2.066,3.488,1.317,4.169c-0.746,0.684-2.553-0.078-4.031-1.7
		C623.178,402.425,622.588,400.557,623.336,399.876z M613.191,395.385c2.896,2.01,4.491,4.724,3.561,6.061
		c-0.927,1.337-4.027,0.791-6.921-1.223c-2.896-2.012-4.486-4.726-3.561-6.062C607.199,392.823,610.298,393.373,613.191,395.385z
		 M599.786,384.382c0.314-0.963,2.261-1.187,4.347-0.506c2.083,0.686,3.518,2.019,3.2,2.98c-0.313,0.963-2.259,1.191-4.345,0.506
		C600.902,386.679,599.471,385.344,599.786,384.382z M281.907,413.021c-2.336-7.614-4.028-15.456-5.028-23.444l4.474,0.059
		c0.859,6.614,2.21,13.121,4.019,19.473C284.195,410.382,283.04,411.685,281.907,413.021z M297.21,397.972
		c-1.182,0.958-2.346,1.959-3.503,2.98c-0.872-3.683-1.591-7.411-2.126-11.186l17.093,0.223
		C304.798,392.331,300.961,395.004,297.21,397.972z M313.561,379.923l-40.986-0.526c-5.027-0.065-9.062-4.205-8.996-9.233
		c0.063-5.023,4.203-9.055,9.23-8.991l40.986,0.528c-0.307,2.998-0.488,6.035-0.528,9.106
		C313.229,373.88,313.332,376.917,313.561,379.923z M292.076,351.29c4.734-28.149,19.032-53.859,40.66-72.886
		c23.217-20.429,53.045-31.457,83.994-31.06c67.458,0.867,121.886,55.387,123.151,122.36c-1.729,0.028-3.452,0.065-5.166,0.119
		c-0.197-1.346-2.931-2.28-6.212-2.092c-3.2,0.182-5.761,1.355-5.934,2.673c-1.866,0.119-3.726,0.246-5.575,0.381
		c-0.698-54.967-45.269-99.819-100.554-100.529c-49.593-0.639-91.472,34.452-101.098,81.333L292.076,351.29z M348.909,435.533
		c1.048-0.77,2.839-1.319,4.891-1.4c0.221-0.01,0.438-0.013,0.653-0.01c3.003,0.029,5.383,1.105,5.44,2.529
		c0.023,0.569-0.328,1.11-0.946,1.574c-1.044,0.784-2.852,1.345-4.926,1.428c-0.309,0.012-0.611,0.01-0.909,0
		c-2.881-0.085-5.13-1.139-5.185-2.521C347.904,436.555,348.27,436.003,348.909,435.533z M333.319,432.716
		c0.575-1.114,2.273-2.278,4.464-2.921c2.961-0.876,5.686-0.476,6.09,0.891c0.404,1.368-1.669,3.184-4.63,4.057
		c-1.518,0.446-2.969,0.555-4.083,0.375c-1.057-0.172-1.811-0.604-2.007-1.27C333.049,433.492,333.117,433.107,333.319,432.716z
		 M327.537,443.146c2.318-1.181,4.641-1.271,5.185-0.201c0.548,1.07-0.891,2.897-3.211,4.078c-2.318,1.18-4.641,1.271-5.187,0.2
		C323.778,446.154,325.217,444.326,327.537,443.146z M313.256,444.172c0.103-0.107,0.192-0.216,0.3-0.321
		c2.229-2.171,4.851-3.097,5.853-2.066c1.003,1.027,0.007,3.621-2.225,5.793c-0.279,0.271-0.563,0.522-0.851,0.755
		c-2.008,1.616-4.122,2.213-5,1.313C310.379,448.664,311.249,446.271,313.256,444.172z M310.783,459.596
		c-0.325-0.389-0.231-1.049,0.16-1.774c0.326-0.603,0.855-1.252,1.553-1.832c1.54-1.284,3.264-1.747,3.856-1.038
		c0.592,0.713-0.174,2.324-1.714,3.608c-0.693,0.577-1.422,0.979-2.071,1.192C311.777,460.011,311.106,459.985,310.783,459.596z
		 M541.782,418.578c1.652-0.323,3.303-0.635,4.947-0.927c-19.125,55.151-71.945,94.536-133.436,93.748
		c-34.546-0.446-67.52-13.611-92.845-37.075c-2.945-2.729-5.759-5.574-8.438-8.521c1.034-1.091,1.995-2.223,3.042-3.215l0.001-0.002
		c2.668,2.948,5.473,5.793,8.415,8.518c24.528,22.726,56.463,35.48,89.926,35.909C472.067,507.77,522.587,470.756,541.782,418.578z
		 M499.773,428.744c0.256-0.045,0.517-0.083,0.771-0.13c1.159-0.218,2.3-0.467,3.45-0.704l0.86-0.182l0.217-0.047
		c0.137-0.029,0.057-0.013,0.12-0.029l0.321-0.091l1.293-0.364c1.66-0.463,3.322-0.931,4.991-1.398
		c3.281-0.905,6.632-1.806,9.95-2.647c2.697-0.688,5.403-1.346,8.107-1.98c-19.322,45.028-64.372,76.384-116.333,75.714
		c-30.95-0.397-60.486-12.194-83.17-33.211c-2.696-2.498-5.267-5.104-7.715-7.803c1.567-1.223,3.137-2.295,4.644-3.289
		c1.965-1.27,3.905-2.255,5.682-3.18c3.887-1.688,7.771-2.95,11.619-3.892c18.004,17.321,42.345,28.128,69.236,28.473
		C449.517,474.444,481.219,456.385,499.773,428.744z M479.462,430.319c2.201,0.055,4.388,0.042,6.553-0.051
		c-17.096,20.799-43.114,33.962-72.065,33.59c-21.347-0.275-40.901-7.877-56.348-20.351c2.716-0.18,5.385-0.214,7.998-0.136
		c13.754,9.599,30.414,15.325,48.413,15.556C439.904,459.262,463.314,448.154,479.462,430.319z M441.807,420.744
		c7.642,3.985,16.107,6.794,24.654,8.287c-13.846,12.499-32.238,20.029-52.317,19.771c-0.807-0.011-1.608-0.038-2.409-0.071
		c0-0.007,0-0.013,0-0.02c-0.017-47.775-33.384-69.416-51.781-70.785c0,0-1.375-0.104-3.949-0.294
		c-1.172-0.078-2.483-0.144-3.922-0.186c-0.396-0.018-0.626-0.005-0.935-0.002c-0.294,0.006-0.595,0.01-0.901,0.017
		c-0.613,0.015-1.252,0.029-1.914,0.049c-1.346,0.015-2.692,0.178-4.169,0.307c-1.489,0.122-2.98,0.357-4.573,0.603
		c-0.287,0.047-0.582,0.104-0.871,0.152c-0.004-0.042-0.009-0.082-0.012-0.125c-0.066-0.799-0.112-1.601-0.152-2.404
		c-0.021-0.411-0.051-0.819-0.064-1.231c-0.043-1.221-0.062-2.447-0.047-3.681c0.394-30.607,18.767-56.843,44.92-68.796
		c-0.173,6.8,0.078,14.432,1.037,22.779c1.312,11.162,3.824,23.622,8.808,36.993c2.491,6.678,5.653,13.582,9.719,20.552
		c4.11,6.954,9.157,13.996,15.563,20.627C424.896,409.889,432.734,416.057,441.807,420.744z M416.246,285.306
		c-47.868-0.615-87.312,37.829-87.928,85.693c-0.044,3.363,0.107,6.684,0.44,9.954c-1.56,0.493-3.147,1.025-4.754,1.622
		c-0.436-3.819-0.664-7.697-0.613-11.64c0.649-50.579,42.333-91.203,92.918-90.553c49.265,0.633,89.071,40.194,90.509,88.987
		c-0.786-0.114-1.66-0.146-2.591-0.053c-0.847,0.085-1.63,0.26-2.329,0.491C500.687,323.502,462.967,285.906,416.246,285.306z
		 M436.148,304.252c1.796,0,3.249,3.151,3.249,7.039s-1.453,7.04-3.249,7.04c-1.794,0-3.247-3.152-3.247-7.04
		S434.354,304.252,436.148,304.252z M438.735,347.702c-1.781,0.214-3.603-2.741-4.067-6.602c-0.464-3.859,0.604-7.162,2.386-7.377
		c1.78-0.214,3.603,2.741,4.065,6.601C441.584,344.185,440.516,347.487,438.735,347.702z M444.633,318.331
		c1.793,0,3.248,3.151,3.248,7.039s-1.455,7.039-3.248,7.039c-1.794,0-3.25-3.151-3.25-7.039S442.839,318.331,444.633,318.331z
		 M451.071,348.069c0.672,3.275-0.005,6.182-1.517,6.492c-1.511,0.312-3.283-2.091-3.958-5.366
		c-0.673-3.274,0.007-6.181,1.517-6.492C448.626,342.392,450.396,344.795,451.071,348.069z M452.904,372.416
		c-1.363,1.166-4.516-0.285-7.041-3.242c-2.525-2.955-3.465-6.295-2.101-7.461c1.364-1.165,4.517,0.288,7.042,3.241
		C453.33,367.911,454.271,371.251,452.904,372.416z M456.219,363.191c0.99-0.994,3.535-0.063,5.687,2.073
		c2.15,2.139,3.097,4.679,2.108,5.673c-0.985,0.994-3.532,0.065-5.686-2.075S455.233,364.184,456.219,363.191z M472.838,384.5
		c-0.812,1.602-4.28,1.471-7.747-0.294c-3.465-1.76-5.614-4.486-4.802-6.085c0.812-1.6,4.281-1.468,7.746,0.294
		C471.502,380.177,473.652,382.901,472.838,384.5z M482.516,377.33c-0.273,0.975-2.211,1.283-4.321,0.689
		c-2.113-0.595-3.603-1.868-3.327-2.841c0.167-0.595,0.952-0.935,2.014-0.981c0.684-0.029,1.479,0.062,2.308,0.292
		c0.414,0.116,0.796,0.267,1.153,0.427C481.807,375.578,482.734,376.547,482.516,377.33z M479.326,369.662
		c-2.625-0.677-5.02-0.361-5.754,0.682c-1.025-0.515-1.997-1.084-2.928-1.712c-2.261-1.533-4.318-3.462-6.241-5.756
		c1.049-0.834,0.723-3.41-0.794-5.909c-1.573-2.593-3.817-4.109-5.017-3.381c-0.025,0.016-0.04,0.043-0.064,0.06
		c-0.177-0.357-0.363-0.706-0.534-1.071c-1.584-3.458-2.91-7.139-3.925-10.881c1.481-0.517,2.159-3.493,1.516-6.851
		c-0.649-3.382-2.396-5.907-3.976-5.802c-0.396-3.249-0.623-6.408-0.697-9.373c-0.007-0.295-0.006-0.577-0.011-0.867
		c0.006,0,0.011,0.002,0.018,0.002c1.916,0.107,3.652-3.174,3.879-7.319c0.114-2.092-0.177-4.005-0.737-5.403
		c22.877,13.537,38.121,38.591,37.755,67.021c0,0.031-0.002,0.062-0.002,0.091c-2.793,0.22-5.403,0.218-7.791,0.004
		C484.034,371.894,482.055,370.366,479.326,369.662z M491.547,387.785c-0.457,0.002-0.902-0.017-1.334-0.053
		c-3.249-0.275-5.71-1.582-5.718-3.167c-0.009-1.753,3.003-3.191,6.769-3.268c0.086-0.002,0.169-0.009,0.256-0.009
		c3.888-0.019,7.046,1.422,7.053,3.218C498.582,386.303,495.438,387.771,491.547,387.785z M506.588,379.113
		c-0.662,0.127-1.394,0.196-2.172,0.173c-1.016-0.027-1.952-0.194-2.738-0.455c-1.37-0.452-2.269-1.194-2.245-2.014
		c0.023-0.839,1.012-1.542,2.463-1.912c0.775-0.196,1.679-0.304,2.649-0.278c0.819,0.022,1.58,0.142,2.259,0.321
		c1.634,0.429,2.75,1.237,2.725,2.146C509.504,378.021,508.299,378.785,506.588,379.113z M517.564,386.846
		c-0.558,0.011-1.098-0.013-1.619-0.059c-3.112-0.279-5.45-1.52-5.479-3.055c-0.034-1.673,2.68-3.101,6.197-3.347
		c0.256-0.017,0.515-0.029,0.778-0.035c3.886-0.076,7.064,1.317,7.099,3.113C524.576,385.258,521.452,386.774,517.564,386.846z
		 M531.903,377.554c-0.675,0.134-1.422,0.205-2.22,0.183c-2.789-0.076-5.019-1.183-4.982-2.469c0.035-1.288,2.324-2.266,5.112-2.191
		c1.503,0.042,2.829,0.387,3.74,0.895c0.779,0.432,1.26,0.981,1.243,1.574C534.772,376.465,533.588,377.22,531.903,377.554z
		 M542.064,386.04c-1.042,0.021-2.024-0.074-2.905-0.254c-2.216-0.455-3.759-1.47-3.783-2.678c-0.024-1.317,1.759-2.469,4.277-2.948
		c0.715-0.136,1.485-0.221,2.295-0.237c3.661-0.072,6.656,1.241,6.686,2.932C548.668,384.545,545.728,385.973,542.064,386.04z
		 M582.541,386.085c0.434-1.57,3.54-2.077,6.938-1.139c3.396,0.939,5.8,2.972,5.364,4.542c-0.432,1.567-3.539,2.079-6.936,1.136
		C584.508,389.685,582.109,387.649,582.541,386.085z M578.133,375.2c2.157,0.399,3.756,1.531,3.57,2.527
		c-0.185,0.994-2.084,1.479-4.241,1.076c-2.157-0.399-3.755-1.531-3.57-2.525C574.078,375.28,575.975,374.8,578.133,375.2z
		 M564.266,380.509c0.7-0.047,1.448-0.038,2.225,0.042c3.505,0.364,6.213,1.972,6.043,3.59c-0.167,1.618-3.146,2.636-6.654,2.27
		c-0.713-0.074-1.391-0.201-2.02-0.368c-2.465-0.653-4.156-1.933-4.021-3.222C559.969,381.561,561.806,380.67,564.266,380.509z
		 M555.041,373.287c2.191,0.06,3.947,0.929,3.92,1.942c-0.028,1.011-1.828,1.785-4.021,1.724c-0.223-0.006-0.438-0.025-0.649-0.049
		c-1.878-0.196-3.294-0.983-3.271-1.893c0.024-0.907,1.472-1.614,3.347-1.711C554.587,373.29,554.811,373.281,555.041,373.287z
		 M416.877,232.834c75.436,0.971,136.279,62.05,137.478,137c-1.455-0.054-2.901-0.087-4.345-0.114
		c-1.26-72.506-60.146-131.562-133.146-132.502c-33.463-0.43-65.715,11.497-90.818,33.586
		c-23.772,20.912-39.351,49.308-44.198,80.358l-4.475-0.057c4.893-32.299,21.025-61.86,45.737-83.599
		C349.03,244.703,382.331,232.39,416.877,232.834z"/>
	<path fill="#38A8DB" d="M609.178,502.021c-8.952,16.202-18.195,32.943-14.372,47.146c0.101-0.626,0.214-1.266,0.364-1.934
		c0.4-1.787,1.006-3.721,1.762-5.74c0.747,0.182,1.797-0.73,2.41-2.139c0.628-1.442,0.573-2.855-0.108-3.249
		c0.758-1.595,1.585-3.22,2.501-4.886c0.724,0.298,1.889-0.506,2.656-1.868c0.744-1.322,0.852-2.685,0.284-3.191
		c1.389-2.285,2.884-4.626,4.486-7.042c0.901,0.372,2.416-0.512,3.517-2.113c1.121-1.633,1.402-3.389,0.689-4.075
		c0.045-0.063,0.087-0.125,0.131-0.19c1.555-2.258,3.173-4.575,4.851-7.086c0.838-1.259,1.69-2.562,2.565-4.002
		c0.425-0.709,0.86-1.435,1.306-2.247c-3.63-0.478-7.232-1.007-10.674-1.686C610.757,499.16,609.964,500.597,609.178,502.021z
		 M605.361,520.909c-0.808,1.326-1.961,2.098-2.574,1.724c-0.611-0.372-0.452-1.752,0.357-3.078
		c0.811-1.326,1.963-2.096,2.574-1.724C606.33,518.206,606.17,519.583,605.361,520.909z M613.209,505.97
		c0.773,0.534,0.463,2.326-0.694,4.004c-1.157,1.677-2.724,2.605-3.498,2.07c-0.774-0.533-0.466-2.329,0.693-4.006
		C610.869,506.36,612.437,505.437,613.209,505.97z"/>
	<path fill="#38A8DB" d="M607.938,471.794c-0.55,2.93-1.18,5.83-1.857,8.691c-0.351,1.43-0.664,2.855-1.042,4.263
		c-0.17,0.643-0.335,1.275-0.502,1.912c2.369,0.909,5.11,1.635,8.019,2.239c0.786-1.531,1.549-3.056,2.262-4.56
		c13.408-28.342,14.638-50.479,3.655-65.798c-0.018-0.025-0.036-0.049-0.055-0.074c-5.498,0.851-10.938,2.189-15.979,3.943
		c0.613,0.588,1.199,1.218,1.758,1.907c2.453,3.025,4.287,7.478,5.234,12.729c0.48,2.614,0.783,5.388,0.91,8.243
		c0.087,2.868,0.097,5.787-0.102,8.75C609.92,459.951,609.04,465.941,607.938,471.794z"/>
	<path fill="#38A8DB" d="M245.652,558.692c0.044,0.11,0.09,0.218,0.165,0.309c0.782,0.934,2.997,0.375,4.947-1.258
		c1.952-1.631,2.899-3.717,2.115-4.651c-0.05-0.06-0.121-0.098-0.183-0.145c3.571-3.153,6.97-6.563,10.215-10.148
		c0.003,0.004,0.004,0.009,0.008,0.013c0.927,0.793,3.019-0.131,4.669-2.07c1.649-1.932,2.235-4.148,1.305-4.938
		c-0.002-0.002-0.005-0.002-0.007-0.004c0.181-0.222,0.364-0.442,0.544-0.666c2.367-2.972,4.644-6.03,6.812-9.157
		c0.023,0.018,0.037,0.045,0.061,0.06c1.035,0.643,2.964-0.582,4.31-2.743c1.3-2.09,1.562-4.273,0.64-4.996
		c1.425-2.302,2.808-4.624,4.125-6.97c0.327-0.582,0.647-1.168,0.971-1.751c-1.513-2.044-3.043-4.19-4.592-6.429
		c-0.186,0.561-0.416,1.134-0.717,1.711c-1.436,2.759-3.636,4.459-4.909,3.797c-1.275-0.664-1.14-3.441,0.298-6.199
		c0.75-1.442,1.707-2.583,2.633-3.26c-0.799-1.187-1.602-2.393-2.41-3.617c-3.784,7.075-8,14.179-12.638,20.981l2.316,2.315
		c0.083-0.156,0.153-0.307,0.266-0.479c1.455-2.226,3.469-3.486,4.495-2.813c1.029,0.673,0.681,3.021-0.776,5.248
		c-0.548,0.837-0.962,1.332-1.319,1.59c0.709,2.075,0.259,4.466-1.393,6.117l-28.255,28.257c-1.122,1.121-2.612,1.739-4.195,1.739
		s-3.073-0.618-4.195-1.739l-3.554-3.553c-7.258,4.258-15.046,7.21-23.367,8.38c-2.771,0.392-5.464,0.571-8.065,0.571
		c-9.718,0-18.231-2.507-25.341-5.944c-1.449-0.503-2.523-1.04-3.256-1.466c-0.541-0.334-0.924-0.596-1.155-0.775
		c-0.23-0.178-0.349-0.27-0.349-0.27l-0.195-0.152c-0.918-0.543-1.801-1.1-2.658-1.662c-1.719-0.611-3.688-0.459-5.35,0.595
		c-2.865,1.816-3.718,5.613-1.899,8.483c0,0,0.208,0.328,0.616,0.972c0.414,0.63,1.063,1.514,1.979,2.565
		c0.59,0.66,1.308,1.381,2.128,2.126c-0.483,0.799,0.063,2.148,1.292,3.099c1.253,0.969,2.734,1.146,3.366,0.425
		c0.659,0.417,1.342,0.829,2.074,1.227c2.424,1.32,5.25,2.536,8.424,3.541c-0.111,0.907,0.875,1.934,2.334,2.363
		c1.557,0.461,3.044,0.061,3.323-0.889c0.002-0.005,0-0.011,0.002-0.015c0.448,0.091,0.893,0.186,1.352,0.269
		c3.966,0.706,8.325,1.056,12.955,0.945c-0.03,0.112-0.055,0.224-0.046,0.339c0.082,1.12,2.039,1.889,4.374,1.715
		c2.331-0.171,4.159-1.221,4.074-2.342c-0.011-0.137-0.051-0.271-0.115-0.397c5.851-0.825,11.958-2.438,18.077-4.816
		c0.011,0.027,0.009,0.06,0.021,0.087c0.531,1.1,2.815,1.098,5.105-0.011c2.183-1.051,3.561-2.718,3.229-3.824
		C235.577,565.686,240.72,562.42,245.652,558.692z M277.287,513.956c1.009-1.73,2.473-2.756,3.271-2.293
		c0.8,0.466,0.631,2.244-0.378,3.977c-1.007,1.73-2.473,2.757-3.271,2.293C276.111,517.468,276.28,515.687,277.287,513.956z
		 M167.316,563.217c-0.406,0.682-1.928,0.521-3.401-0.359c-1.473-0.878-2.338-2.141-1.934-2.819
		c0.406-0.682,1.929-0.521,3.401,0.357C166.854,561.275,167.722,562.538,167.316,563.217z M182.017,569.283
		c-0.396,1.034-2.536,1.181-4.782,0.324c-2.244-0.857-3.744-2.393-3.351-3.43c0.396-1.034,2.538-1.182,4.782-0.325
		C180.912,566.709,182.412,568.245,182.017,569.283z M193.995,571.936c-2.396-0.154-4.283-1.18-4.212-2.288
		c0.072-1.104,2.075-1.877,4.474-1.72c2.396,0.156,4.283,1.178,4.212,2.288C198.396,571.322,196.396,572.092,193.995,571.936z
		 M211.758,569.856c-2.333,0.575-4.438,0.169-4.706-0.907c-0.265-1.077,1.411-2.416,3.746-2.993
		c2.333-0.575,4.439-0.171,4.706,0.907C215.769,567.94,214.096,569.279,211.758,569.856z M226.922,564.325
		c-2.489,0.933-4.856,0.755-5.285-0.394c-0.43-1.15,1.241-2.838,3.729-3.767c2.489-0.934,4.856-0.756,5.288,0.394
		C231.08,561.707,229.414,563.393,226.922,564.325z"/>
	<path fill="#38A8DB" d="M213.021,545.979c-4.853,3.737-9.93,6.593-14.894,8.471c-4.786,1.863-9.453,2.9-13.62,3.224
		c5.776,1.28,12.153,1.705,19.074,0.732c7.597-1.068,14.738-3.728,21.437-7.548l-8.083-8.084
		C215.648,543.905,214.343,544.978,213.021,545.979z"/>
	<path fill="#38A8DB" d="M266.893,480.479c-3.675-5.745-7.416-11.583-11.098-17.07c-0.709,2.511-1.359,5.034-1.946,7.568
		c-0.428,2.033-1.036,4.123-1.54,6.149c-0.49,1.787-0.893,3.505-1.468,5.392c-1.054,3.735-2.259,7.398-3.528,11.037
		c-0.541,1.548-1.122,3.073-1.712,4.592l16.083,16.084c4.771-7.05,9.08-14.43,12.933-21.755c-2.498-3.831-5.045-7.81-7.646-11.875
		L266.893,480.479z"/>
	<path fill="#38A8DB" d="M573.984,448.686l2.479-5.491l1.335-2.961l-0.84-0.379l-1.01-0.454l-1-0.453
		c5.328-8.222,14.838-14.246,25.54-18.167c5.295-1.94,10.88-3.365,16.396-4.286c1.232-0.205,2.461-0.387,3.682-0.541
		c2.813-0.357,5.585-0.586,8.269-0.679c0.954-0.034,1.897-0.049,2.822-0.049c1.976,0,3.872,0.082,5.695,0.229
		c10.01,0.797,17.506,3.71,19.98,8.04c1.669,2.916,1.112,6.599-1.654,10.945c-2.921,4.591-6.821,8.089-11.244,10.896
		c-0.013,0.034-0.027,0.07-0.04,0.104c-0.322,1.458-0.921,5.404-0.901,5.69c6.266-3.372,11.881-7.85,15.972-14.277
		c4.649-7.307,3.528-12.508,1.767-15.585c-3.466-6.064-12.799-9.796-25.538-10.428c-1.283-0.063-2.587-0.108-3.937-0.108
		c-1.009,0-2.035,0.02-3.078,0.056c-3.72,0.129-7.604,0.51-11.538,1.134c-1.308,0.207-2.621,0.439-3.937,0.702
		c-6.049,1.21-12.118,3.005-17.799,5.399c-10.322,4.35-19.344,10.678-24.575,19.066l-0.994-0.448l-0.992-0.448l-0.611-0.275
		l-1.335,2.962l-2.479,5.493l-1.337,2.961l2.964,1.337l3.64,1.642l2.961,1.336L573.984,448.686z M571.023,447.349l-3.643-1.642
		l1.464-3.242l0.446-0.987l0.445-0.988l3.415,1.647c0.058-0.118,0.125-0.234,0.185-0.353l0.164,0.073l-0.611,1.356l-0.445,0.987
		L571.023,447.349z"/>
	
		<rect x="570.391" y="443.766" transform="matrix(-0.9116 -0.4112 0.4112 -0.9116 908.7182 1084.4644)" fill="#38A8DB" width="1.204" height="1.467"/>
	
		<rect x="568.82" y="443.26" transform="matrix(0.4115 -0.9114 0.9114 0.4115 -69.3569 780.3119)" fill="#38A8DB" width="1.469" height="1.204"/>
	<path fill="#38A8DB" d="M651.256,526.605l9.074-3.753l-1.681-4.063c-1.345,0.11-2.665-0.632-3.207-1.943
		c-0.561-1.355-0.152-2.822,0.876-3.695l-0.846-2.043l-0.71-1.718l-0.168-0.408l-0.171-0.41l-0.175-0.426l-0.238-0.575l1.785-0.738
		l0.239,0.578l0.176,0.423l0.169,0.41l0.147,0.357l0.731,1.769l0.845,2.043c1.345-0.11,2.666,0.633,3.209,1.944
		c0.561,1.354,0.152,2.821-0.877,3.694l1.682,4.063l9.073-3.752l3.839-1.589l0.89-0.368l-2.671-6.457
		c-2.282-5.525-8.636-8.161-14.161-5.876l-0.351,0.146l-1.002,0.415l-0.402,0.167c-0.028-0.085-0.043-0.169-0.076-0.252
		c-0.302-0.729-0.852-1.275-1.506-1.609c-3.816-6.467-15.326-7.933-28.552-9.605c-0.675-0.085-1.355-0.171-2.039-0.258
		c-3.438-0.44-6.95-0.918-10.324-1.521c-1.127-0.201-2.237-0.417-3.325-0.649c-2.709-0.584-5.255-1.282-7.527-2.139
		c-3.418-1.29-6.21-2.944-7.902-5.165c-1.644-2.16-2.217-4.787-1.749-8.032c0.697-4.846,4.037-7.864,9.142-10.248
		c0.163-1.694,0.328-3.388,0.484-5.082c-7.543,3.037-12.979,7.106-14.07,14.691c-0.641,4.434,0.243,8.269,2.623,11.393
		c2.213,2.906,5.549,4.983,9.559,6.542c2.229,0.865,4.664,1.572,7.238,2.164c1.082,0.25,2.193,0.479,3.319,0.691
		c3.425,0.654,7.014,1.166,10.627,1.634c1.127,0.147,2.256,0.292,3.381,0.434c10.507,1.33,21.315,2.709,24.74,6.758
		c-0.21,0.512-0.274,1.083-0.197,1.656c0.036,0.281,0.097,0.561,0.211,0.835c0.026,0.063,0.065,0.119,0.097,0.18l-0.904,0.373
		l-0.849,0.351c-5.524,2.284-8.16,8.639-5.876,14.163l2.671,6.458l3.007-1.243L651.256,526.605z"/>
	<path fill="#38A8DB" d="M232.582,411.272c10.961,10.413,19.551,18.798,28.05,27.385c0.738-1.292,1.437-2.607,2.132-3.921
		c-8.526-8.592-16.879-16.723-27.239-26.562c-15.278-14.513-37.175-41.777-29.042-57.415l1.259,1.106l0.595,0.521l2.111-2.413
		l0.969-1.107l2.948-3.364l2.11-2.41l-2.408-2.11l-2.966-2.599l-2.411-2.113l-2.113,2.411l-2.592,2.96l-1.323,1.512l-1.133,1.294
		l-0.979,1.116l0.164,0.144l1.238,1.086l1.007,0.883l0.234,0.205C193.318,364.535,212.199,391.912,232.582,411.272z
		 M205.903,344.313l3.086-3.521l2.964,2.598l-3.093,3.529l-0.825,0.942l-2.963-2.598L205.903,344.313z"/>
	<path fill="#38A8DB" d="M218.544,541.32l8.401,8.401l2.35,2.351l3.192,3.191c0.735,0.736,1.7,1.104,2.664,1.104
		c0.963,0,1.927-0.368,2.664-1.104l28.255-28.257c1.472-1.472,1.47-3.855,0-5.326l-3.309-3.308l-2.324-2.325l-15.71-15.709
		l-26.347-26.347l0.725-0.807l0.634-0.706c0.032-0.032,0.056-0.072,0.087-0.105c0.018-0.018,0.031-0.038,0.048-0.058
		c0.419-0.461,0.715-1.002,0.881-1.591c0.099-0.347,0.166-0.702,0.167-1.072c0.002-0.412-0.077-0.81-0.195-1.192
		c5.519-5.525,5.402-13.31,5.299-20.18c-0.146-9.429,0.404-13.037,6.789-13.49c0.104-0.007,0.209-0.011,0.314-0.011
		c5.766,0,14.609,11.01,23.863,24.594c4.238,6.223,8.562,12.985,12.716,19.477c2.228,3.481,4.438,6.936,6.627,10.308
		c0.684,1.053,1.366,2.1,2.046,3.135c3.291,5.015,6.527,9.789,9.686,14.12c9.185,12.595,17.724,21.44,25.103,21.44
		c0.601,0,1.195-0.062,1.781-0.181c6.005-1.23,8.162-4.621,8.913-7.248c2.141-7.486-4.006-20.397-18.615-38.977
		c-0.671,1.374-1.411,2.72-2.198,4.019c14.984,19.206,18.089,28.942,16.704,33.781c-0.631,2.198-2.481,3.586-5.663,4.239
		c-0.324,0.067-0.659,0.1-1.001,0.1c-5.82,0-14.148-9.388-22.789-21.442c-3.225-4.498-6.492-9.367-9.689-14.263
		c-0.69-1.055-1.377-2.112-2.06-3.166c-1.785-2.761-3.54-5.504-5.243-8.167c-5.108-7.984-9.99-15.616-14.627-22.296
		c-9.689-13.96-18.3-23.743-25.604-23.743c-0.189,0-0.376,0.007-0.564,0.02c-11.021,0.782-10.883,9.831-10.763,17.815
		c0.098,6.335,0.199,12.889-4.082,17.138l0.345,0.347c-0.735-0.201-1.518-0.192-2.26,0.03c-0.533,0.158-1.036,0.429-1.479,0.813
		c-0.026,0.023-0.056,0.043-0.082,0.068c-0.04,0.036-0.086,0.062-0.125,0.102l-0.586,0.717l-0.69,0.842l-14.216-14.216
		c-0.735-0.736-1.698-1.103-2.662-1.103c-0.963,0-1.927,0.366-2.662,1.103l-28.257,28.259c-1.472,1.47-1.47,3.854,0,5.323
		L218.544,541.32z M226.277,542.461c-0.467,0-0.934-0.178-1.289-0.533l-3.507-3.507l-43.033-43.032c-0.711-0.71-0.711-1.861,0-2.571
		l0.423-0.424l1.614-1.613c0.355-0.355,0.82-0.533,1.286-0.533c0.465,0,0.932,0.178,1.286,0.533l42.758,42.756l3.782,3.782
		c0.709,0.711,0.711,1.861,0,2.576l-1.613,1.612l-0.424,0.423C227.205,542.285,226.741,542.461,226.277,542.461z M226.668,514.841
		l-2.037,2.036c-0.355,0.355-0.82,0.533-1.285,0.533c-0.466,0-0.93-0.178-1.284-0.533l-2.037-2.039
		c-0.711-0.708-0.711-1.859-0.002-2.567l2.037-2.039c0.354-0.354,0.819-0.531,1.283-0.531c0.466,0,0.931,0.178,1.286,0.533
		l2.039,2.037C227.377,512.979,227.377,514.132,226.668,514.841z M227.607,515.779c0.355-0.354,0.819-0.53,1.284-0.53
		c0.466,0,0.933,0.177,1.288,0.532l2.034,2.037c0.711,0.709,0.711,1.859,0,2.57l-2.034,2.037c-0.355,0.355-0.821,0.53-1.286,0.53
		c-0.466,0-0.931-0.175-1.286-0.53l-2.035-2.037c-0.711-0.711-0.711-1.861-0.002-2.572L227.607,515.779z M221.12,509.292
		l-2.037,2.037c-0.355,0.355-0.819,0.533-1.285,0.533c-0.465,0-0.931-0.178-1.284-0.533l-2.037-2.037
		c-0.711-0.708-0.711-1.861-0.002-2.572l2.036-2.034c0.355-0.355,0.82-0.533,1.285-0.533c0.466,0,0.932,0.178,1.287,0.533
		l2.037,2.034C221.828,507.433,221.828,508.584,221.12,509.292z M215.572,503.744l-2.037,2.037c-0.355,0.355-0.82,0.533-1.284,0.533
		c-0.465,0-0.931-0.178-1.286-0.535l-2.037-2.035c-0.71-0.711-0.71-1.859,0-2.57l2.035-2.037c0.355-0.354,0.82-0.532,1.286-0.532
		s0.931,0.178,1.286,0.532l2.037,2.037C216.28,501.885,216.282,503.033,215.572,503.744z M210.023,498.196l-2.037,2.036
		c-0.354,0.355-0.82,0.533-1.285,0.533c-0.466,0-0.93-0.178-1.284-0.533l-2.037-2.036c-0.711-0.711-0.711-1.859,0-2.572l2.037-2.035
		c0.354-0.353,0.818-0.53,1.284-0.53c0.465,0,0.931,0.178,1.285,0.53l2.037,2.035C210.732,496.337,210.734,497.485,210.023,498.196z
		 M204.476,492.65l-2.037,2.034c-0.354,0.355-0.818,0.533-1.284,0.533c-0.465,0-0.932-0.178-1.285-0.533l-2.037-2.037
		c-0.711-0.71-0.713-1.858-0.002-2.571l2.039-2.037c0.354-0.354,0.819-0.531,1.284-0.531c0.467,0,0.933,0.178,1.287,0.531
		l2.037,2.037C205.188,490.789,205.187,491.939,204.476,492.65z M198.397,495.812c0.466,0,0.931,0.178,1.285,0.532l2.037,2.035
		c0.708,0.713,0.711,1.863,0,2.576l-2.037,2.033c-0.354,0.357-0.82,0.535-1.286,0.535c-0.465,0-0.931-0.178-1.286-0.533
		l-2.037-2.035c-0.708-0.713-0.708-1.863,0.003-2.576l2.034-2.035C197.466,495.99,197.932,495.812,198.397,495.812z
		 M200.624,503.928l2.034-2.034c0.355-0.355,0.821-0.533,1.287-0.533s0.932,0.178,1.285,0.533l2.037,2.034
		c0.709,0.713,0.709,1.864,0,2.574l-2.037,2.035c-0.354,0.355-0.82,0.533-1.286,0.533c-0.465,0-0.931-0.178-1.286-0.533
		l-2.036-2.033C199.913,505.792,199.913,504.641,200.624,503.928z M206.172,509.477l2.035-2.037c0.355-0.354,0.82-0.531,1.286-0.531
		c0.465,0,0.931,0.178,1.286,0.531l2.036,2.037c0.711,0.713,0.711,1.863,0,2.572l-2.036,2.036c-0.355,0.355-0.821,0.533-1.287,0.533
		s-0.93-0.176-1.285-0.53l-2.037-2.039C205.461,511.34,205.461,510.189,206.172,509.477z M211.721,515.026l2.034-2.037
		c0.355-0.353,0.821-0.53,1.287-0.53s0.931,0.178,1.285,0.53l2.037,2.037c0.71,0.711,0.708,1.859-0.003,2.57l-2.034,2.037
		c-0.354,0.354-0.821,0.532-1.287,0.532s-0.931-0.178-1.285-0.532l-2.034-2.037C211.01,516.888,211.01,515.737,211.721,515.026z
		 M217.269,520.572l2.034-2.034c0.355-0.355,0.821-0.533,1.287-0.533s0.931,0.178,1.285,0.533l2.035,2.036
		c0.711,0.711,0.711,1.861,0,2.572l-2.035,2.033c-0.355,0.357-0.821,0.537-1.288,0.537c-0.465,0-0.931-0.178-1.284-0.533
		l-2.036-2.037C216.558,522.436,216.558,521.285,217.269,520.572z M222.816,526.121l2.035-2.035c0.355-0.355,0.82-0.533,1.286-0.533
		c0.465,0,0.931,0.178,1.286,0.533l2.036,2.037c0.709,0.708,0.709,1.861,0,2.569l-2.036,2.037c-0.354,0.355-0.821,0.533-1.286,0.533
		c-0.466,0-0.931-0.178-1.286-0.533l-2.037-2.037C222.105,527.984,222.105,526.831,222.816,526.121z M228.364,531.669l2.035-2.037
		c0.355-0.355,0.82-0.531,1.286-0.531c0.465,0,0.931,0.176,1.286,0.531l2.037,2.039c0.708,0.709,0.708,1.861,0,2.572l-2.035,2.034
		c-0.355,0.355-0.823,0.533-1.29,0.533c-0.466,0-0.931-0.175-1.284-0.53l-2.037-2.039
		C227.654,533.532,227.654,532.377,228.364,531.669z M234.443,528.507c-0.466,0-0.933-0.178-1.288-0.535l-1.821-1.821l-0.213-0.214
		c-0.711-0.711-0.711-1.861-0.003-2.572l2.037-2.034c0.355-0.355,0.819-0.533,1.285-0.535c0.101,0,0.201,0.013,0.301,0.029
		c0.36,0.062,0.708,0.227,0.986,0.506l2.035,2.037c0.71,0.708,0.713,1.861,0.002,2.569l-2.037,2.037
		C235.372,528.329,234.908,528.507,234.443,528.507z M236.667,528.913l2.036-2.037c0.355-0.354,0.82-0.531,1.285-0.531
		c0.466,0,0.932,0.178,1.287,0.533l2.035,2.037c0.711,0.708,0.711,1.861,0.002,2.567l-2.037,2.039
		c-0.355,0.355-0.819,0.533-1.285,0.533c-0.465,0-0.93-0.178-1.284-0.535l-2.037-2.037
		C235.958,530.776,235.958,529.623,236.667,528.913z M242.747,525.748c-0.467,0-0.932-0.178-1.287-0.53l-2.035-2.037
		c-0.711-0.711-0.711-1.863-0.002-2.57l2.037-2.039c0.355-0.355,0.82-0.53,1.287-0.53c0.465,0,0.931,0.175,1.285,0.53l2.036,2.039
		c0.711,0.709,0.711,1.859,0,2.57l-2.036,2.037C243.678,525.57,243.212,525.748,242.747,525.748z M240.521,517.633l-2.037,2.036
		c-0.354,0.355-0.819,0.531-1.284,0.531c-0.467,0-0.933-0.176-1.287-0.531l-0.303-0.302l-1.732-1.734
		c-0.711-0.709-0.709-1.864,0-2.572l2.037-2.035c0.354-0.355,0.819-0.533,1.285-0.533c0.465,0,0.93,0.178,1.284,0.533l0.362,0.362
		l1.675,1.673C241.231,515.769,241.231,516.924,240.521,517.633z M234.973,512.084l-2.037,2.039
		c-0.354,0.354-0.818,0.531-1.284,0.531s-0.933-0.178-1.288-0.533l-2.035-2.037c-0.71-0.708-0.71-1.861-0.002-2.569l2.037-2.039
		c0.355-0.355,0.82-0.531,1.287-0.531c0.466,0,0.931,0.176,1.285,0.531l2.037,2.036
		C235.684,510.223,235.684,511.374,234.973,512.084z M229.424,506.536l-2.036,2.035c-0.355,0.355-0.821,0.535-1.287,0.535
		s-0.93-0.178-1.285-0.533l-2.035-2.037c-0.71-0.709-0.71-1.863,0-2.572l2.037-2.037c0.354-0.354,0.819-0.53,1.285-0.53
		c0.465,0,0.931,0.176,1.285,0.53l2.036,2.037C230.135,504.673,230.135,505.825,229.424,506.536z M223.876,500.988l-2.037,2.039
		c-0.354,0.355-0.819,0.53-1.286,0.53c-0.464,0-0.93-0.175-1.283-0.53l-2.039-2.039c-0.709-0.709-0.707-1.863,0-2.57l2.039-2.039
		c0.354-0.355,0.819-0.531,1.285-0.531c0.465,0,0.931,0.176,1.284,0.531l2.037,2.039
		C224.587,499.127,224.587,500.279,223.876,500.988z M218.328,495.439l-2.035,2.037c-0.355,0.355-0.82,0.533-1.287,0.533
		c-0.466,0-0.932-0.178-1.287-0.533l-2.034-2.037c-0.711-0.708-0.709-1.861,0-2.571l2.036-2.035
		c0.354-0.355,0.821-0.533,1.286-0.533c0.466,0,0.931,0.178,1.286,0.531l2.035,2.037
		C219.039,493.578,219.039,494.731,218.328,495.439z M212.78,489.892l-2.035,2.035c-0.355,0.357-0.823,0.535-1.289,0.535
		s-0.93-0.178-1.285-0.533l-2.035-2.037c-0.71-0.708-0.71-1.859,0-2.572l2.037-2.034c0.354-0.355,0.819-0.533,1.285-0.533
		s0.932,0.178,1.287,0.533l2.035,2.034C213.49,488.032,213.49,489.184,212.78,489.892z M207.231,484.344l-2.034,2.034
		c-0.355,0.358-0.822,0.535-1.288,0.535s-0.931-0.177-1.286-0.532l-2.035-2.037c-0.711-0.711-0.709-1.859,0-2.57l2.037-2.037
		c0.355-0.355,0.82-0.532,1.286-0.532c0.465,0,0.931,0.177,1.286,0.532l2.034,2.037
		C207.944,482.484,207.944,483.633,207.231,484.344z M201.686,478.795l-2.037,2.037c-0.355,0.355-0.82,0.533-1.286,0.533
		c-0.465,0-0.932-0.178-1.288-0.533l-2.034-2.037c-0.711-0.708-0.709-1.861,0-2.571l2.034-2.037
		c0.356-0.354,0.823-0.531,1.288-0.531c0.466,0,0.93,0.178,1.284,0.531l2.039,2.037
		C202.396,476.934,202.396,478.087,201.686,478.795z M195.604,481.96c0.466,0,0.931,0.178,1.286,0.533l2.037,2.036
		c0.711,0.711,0.711,1.859,0,2.572l-2.037,2.035c-0.355,0.355-0.819,0.533-1.285,0.533c-0.465,0-0.931-0.178-1.285-0.533
		l-2.037-2.035c-0.71-0.713-0.71-1.861,0-2.572l2.037-2.036C194.675,482.138,195.139,481.96,195.604,481.96z M192.851,490.266
		c0.464,0,0.929,0.176,1.284,0.531l2.037,2.037c0.708,0.711,0.708,1.861,0,2.572l-2.037,2.034c-0.354,0.355-0.821,0.533-1.286,0.533
		c-0.466,0-0.932-0.178-1.286-0.533l-2.037-2.034c-0.709-0.711-0.709-1.861,0.002-2.572l2.035-2.035
		C191.918,490.443,192.384,490.266,192.851,490.266z M190.623,489.857l-2.035,2.035c-0.354,0.355-0.82,0.535-1.286,0.535
		c-0.467,0-0.933-0.18-1.287-0.535l-2.037-2.035c-0.711-0.71-0.709-1.861,0.002-2.574l2.035-2.032
		c0.354-0.357,0.82-0.535,1.286-0.535c0.465,0,0.93,0.178,1.285,0.535l2.037,2.032C191.332,487.996,191.334,489.147,190.623,489.857
		z M237.799,548.094l-1.613,1.613l-0.424,0.423c-0.354,0.355-0.818,0.535-1.284,0.535s-0.931-0.18-1.286-0.535l-0.382-0.38
		l-2.327-2.329l-2.101-2.103c-0.713-0.709-0.711-1.859,0-2.57l0.423-0.423l1.613-1.612c0.355-0.357,0.822-0.534,1.287-0.534
		c0.466,0,0.93,0.177,1.285,0.532l2.767,2.767l2.044,2.044c0.085,0.087,0.159,0.18,0.225,0.274
		C238.5,546.505,238.426,547.472,237.799,548.094z M248.861,537.033l-5.531,5.531l-1.295,1.294l-0.74,0.74
		c-0.355,0.355-0.82,0.533-1.287,0.533c-0.303,0-0.602-0.082-0.874-0.232c-0.146-0.08-0.287-0.176-0.411-0.301l-1.95-1.95
		l-2.862-2.859c-0.71-0.709-0.708-1.863,0-2.572l2.037-2.037c0.355-0.355,0.82-0.53,1.284-0.53c0.467,0,0.933,0.178,1.288,0.53
		l1.487,1.491l4.245-4.245c0.355-0.355,0.819-0.533,1.285-0.533c0.465,0,0.932,0.178,1.287,0.533l0.321,0.324l1.713,1.713
		c0.209,0.207,0.35,0.457,0.437,0.72C249.502,535.812,249.363,536.531,248.861,537.033z M251.617,528.729l-2.035,2.037
		c-0.305,0.305-0.692,0.47-1.09,0.514c-0.067,0.007-0.133,0.02-0.198,0.02c-0.466,0-0.931-0.178-1.286-0.533l-2.035-2.037
		c-0.71-0.708-0.71-1.861,0-2.572l2.037-2.034c0.354-0.355,0.821-0.533,1.286-0.533c0.466,0,0.93,0.178,1.284,0.531l2.037,2.036
		c0.259,0.259,0.421,0.578,0.49,0.912C252.23,527.65,252.068,528.278,251.617,528.729z M254.75,516.949
		c0.465,0,0.93,0.178,1.285,0.533l1.979,1.978l0.059,0.06c0.709,0.708,0.709,1.861-0.002,2.571l-2.035,2.035
		c-0.355,0.355-0.821,0.533-1.288,0.533c-0.205,0-0.408-0.04-0.604-0.11c-0.248-0.086-0.481-0.222-0.679-0.421l-2.037-2.037
		c-0.709-0.708-0.709-1.863,0-2.573l2.037-2.035C253.818,517.127,254.284,516.949,254.75,516.949z M249.201,511.403
		c0.466,0,0.931,0.176,1.286,0.531l2.037,2.034c0.708,0.711,0.708,1.863,0,2.572l-2.037,2.037c-0.355,0.355-0.82,0.533-1.287,0.533
		c-0.465,0-0.931-0.178-1.285-0.533l-2.036-2.037c-0.711-0.709-0.709-1.861,0.002-2.572l2.034-2.034
		C248.271,511.579,248.736,511.403,249.201,511.403z M242.367,506.386c0.354-0.355,0.819-0.533,1.285-0.533s0.932,0.178,1.287,0.533
		l2.037,2.037c0.708,0.709,0.708,1.861,0,2.572l-2.037,2.034c-0.354,0.355-0.821,0.535-1.286,0.535c-0.466,0-0.932-0.18-1.286-0.535
		l-2.037-2.034c-0.07-0.07-0.129-0.148-0.186-0.229c-0.51-0.711-0.452-1.705,0.186-2.344l1.669-1.669L242.367,506.386z
		 M238.105,500.307c0.465,0,0.931,0.176,1.285,0.531l2.035,2.037c0.711,0.708,0.711,1.861,0,2.569l-2.035,2.037
		c-0.354,0.355-0.821,0.533-1.287,0.533c-0.465,0-0.93-0.178-1.284-0.533l-2.037-2.037c-0.711-0.708-0.709-1.861,0-2.569
		l2.037-2.037C237.174,500.482,237.64,500.307,238.105,500.307z M232.556,494.757c0.467,0,0.932,0.176,1.287,0.53l2.037,2.039
		c0.711,0.711,0.711,1.861,0,2.572l-2.037,2.035c-0.355,0.357-0.821,0.535-1.288,0.535c-0.465,0-0.93-0.178-1.284-0.533
		l-2.036-2.037c-0.711-0.711-0.709-1.861,0-2.574l2.036-2.037C231.625,494.933,232.091,494.757,232.556,494.757z M227.009,489.209
		c0.466,0,0.931,0.177,1.286,0.532l2.037,2.037c0.711,0.711,0.711,1.861,0,2.57l-2.037,2.037c-0.355,0.354-0.822,0.532-1.287,0.532
		c-0.466,0-0.93-0.178-1.285-0.532l-2.037-2.035c-0.711-0.711-0.708-1.861,0.002-2.574l2.035-2.035
		C226.078,489.386,226.543,489.209,227.009,489.209z M221.461,483.662c0.465,0,0.931,0.178,1.286,0.531l2.036,2.037
		c0.711,0.711,0.711,1.861,0,2.572l-2.036,2.034c-0.354,0.357-0.821,0.535-1.286,0.535c-0.466,0-0.931-0.178-1.286-0.533
		l-2.037-2.036c-0.711-0.711-0.709-1.861,0.002-2.572l2.035-2.037C220.53,483.84,220.995,483.662,221.461,483.662z M214.627,478.646
		c0.354-0.354,0.82-0.531,1.285-0.531c0.466,0,0.931,0.178,1.286,0.531l2.037,2.037c0.711,0.71,0.711,1.861,0,2.571l-2.037,2.035
		c-0.354,0.355-0.82,0.533-1.286,0.533c-0.465,0-0.931-0.178-1.285-0.533l-2.037-2.035c-0.711-0.708-0.709-1.861,0.002-2.571
		L214.627,478.646z M210.364,472.564c0.466,0,0.932,0.178,1.288,0.532l2.035,2.037c0.711,0.713,0.711,1.861-0.002,2.572
		l-2.033,2.035c-0.355,0.357-0.821,0.535-1.288,0.535c-0.466,0-0.931-0.178-1.286-0.533l-2.037-2.037
		c-0.71-0.711-0.708-1.861,0.002-2.574l2.035-2.035C209.434,472.742,209.898,472.564,210.364,472.564z M204.817,467.016
		c0.465,0,0.931,0.178,1.287,0.535l2.034,2.035c0.711,0.711,0.711,1.861,0,2.574l-2.034,2.032c-0.355,0.355-0.822,0.533-1.288,0.533
		s-0.931-0.178-1.286-0.533l-2.037-2.032c-0.708-0.713-0.708-1.863,0.002-2.574l2.035-2.035
		C203.887,467.193,204.352,467.016,204.817,467.016z M195.947,464.035l2.035-2.032c0.355-0.355,0.82-0.533,1.287-0.533
		c0.466,0,0.932,0.178,1.287,0.533l0.662,0.664l1.372,1.371c0.711,0.71,0.711,1.861,0,2.574l-2.034,2.032
		c-0.355,0.357-0.822,0.535-1.289,0.535c-0.465,0-0.93-0.178-1.285-0.533l-1.372-1.372l-0.663-0.662
		C195.236,465.901,195.236,464.748,195.947,464.035z M189.491,470.675l2.037-2.036c0.355-0.354,0.821-0.531,1.286-0.531
		c0.466,0,0.931,0.178,1.286,0.531l0.572,0.573l1.463,1.463c0.713,0.713,0.71,1.861,0,2.574l-2.035,2.033
		c-0.355,0.357-0.821,0.535-1.288,0.535c-0.465,0-0.929-0.178-1.284-0.533l-1.465-1.464l-0.572-0.571
		C188.781,472.539,188.783,471.388,189.491,470.675z M181.188,473.434l2.035-2.035c0.355-0.355,0.821-0.533,1.285-0.533
		c0.467,0,0.932,0.178,1.286,0.533l3.347,3.347l2.202,2.201l1.296,1.297l0.74,0.738c0.709,0.711,0.711,1.861,0,2.572l-2.036,2.037
		c-0.354,0.355-0.817,0.53-1.282,0.53c-0.467,0-0.933-0.178-1.288-0.532l-0.74-0.741l-1.297-1.294l-2.202-2.202l-3.346-3.346
		C180.477,475.295,180.477,474.145,181.188,473.434z M175.656,478.963l2.037-2.035c0.354-0.355,0.819-0.533,1.285-0.533
		s0.932,0.178,1.287,0.533l3.346,3.346l1.464,1.464c0.711,0.711,0.711,1.859,0,2.574l-2.037,2.031
		c-0.355,0.357-0.821,0.535-1.288,0.535c-0.464,0-0.929-0.178-1.284-0.533l-1.464-1.464l-3.346-3.344
		C174.945,480.824,174.945,479.673,175.656,478.963z M170.125,484.494l2.037-2.035c0.355-0.357,0.82-0.535,1.287-0.535
		c0.466,0,0.932,0.178,1.287,0.535l3.345,3.344l1.465,1.464c0.709,0.711,0.709,1.861-0.002,2.574l-1.614,1.612l-0.423,0.425
		c-0.354,0.354-0.82,0.531-1.286,0.531c-0.465,0-0.93-0.176-1.283-0.531l-4.811-4.812
		C169.416,486.355,169.416,485.204,170.125,484.494z"/>
	
		<rect x="207.606" y="342.767" transform="matrix(0.7513 0.66 -0.66 0.7513 278.4991 -51.9722)" fill="#38A8DB" width="1.188" height="1.448"/>
	
		<rect x="208.651" y="343.912" transform="matrix(-0.6575 0.7535 -0.7535 -0.6575 606.6062 413.2647)" fill="#38A8DB" width="1.445" height="1.187"/>
	<path fill="#38A8DB" d="M642.293,430.225c-0.201-2.668-1.407-4.751-2.74-4.818c-0.186-1.344-0.4-2.695-0.681-4.065
		c-0.245-1.212-0.536-2.437-0.868-3.668c-1.727-0.159-3.546-0.245-5.429-0.269c0.052,0.138,0.104,0.283,0.159,0.441
		c0.875,2.541,0.628,4.929-0.546,5.333c-1.17,0.399-2.832-1.331-3.699-3.875c-0.279-0.811-0.311-1.386-0.208-1.828
		c-2.067,0.089-4.159,0.263-6.259,0.504c10.737,16.272,9.308,39.053-4.271,67.749c-0.596,1.259-1.225,2.53-1.869,3.804
		c3.391,0.59,6.883,1.054,10.198,1.477c0.435-0.99,0.861-1.993,1.294-3c0.041,0.023,0.075,0.06,0.12,0.076
		c0.977,0.388,2.394-0.875,3.159-2.811c0.767-1.944,0.602-3.829-0.378-4.214c-0.027-0.011-0.06-0.006-0.088-0.015
		c0.34-0.88,0.686-1.749,1.017-2.644c1.597-4.324,3.112-8.831,4.45-13.555c0.027,0.009,0.05,0.03,0.078,0.036
		c1.229,0.283,2.685-1.466,3.245-3.902c0.549-2.391,0.044-4.546-1.134-4.901c1.371-6.398,2.341-13.232,2.358-20.663
		C641.562,435.241,642.497,432.948,642.293,430.225z M626.002,483.754c-0.874,1.994-2.331,3.282-3.252,2.876
		c-0.92-0.401-0.96-2.348-0.08-4.34c0.876-1.995,2.333-3.281,3.251-2.879C626.844,479.817,626.877,481.761,626.002,483.754z
		 M631.552,468.512c-0.655,2.077-1.972,3.513-2.93,3.206c-0.956-0.302-1.201-2.233-0.537-4.309c0.66-2.077,1.972-3.509,2.93-3.204
		S632.212,466.438,631.552,468.512z M635.9,451.467c-0.372,2.405-1.58,4.216-2.692,4.04c-1.106-0.171-1.707-2.263-1.326-4.668
		c0.376-2.407,1.584-4.214,2.692-4.042C635.685,446.973,636.279,449.064,635.9,451.467z M634.5,438.592
		c-1.119,0.04-2.106-1.899-2.189-4.332c-0.088-2.435,0.754-4.438,1.875-4.479c1.123-0.04,2.104,1.901,2.191,4.332
		C636.468,436.545,635.625,438.552,634.5,438.592z"/>
	<path fill="#38A8DB" d="M686.26,541.426l-9.724-23.552l-1.625,0.67l-3.104,1.282l-19.941,8.232l-1.791,0.74l-2.938,1.212
		l9.722,23.553c2.28,5.526,8.634,8.164,14.157,5.887l9.361-3.862C685.901,553.305,688.541,546.953,686.26,541.426z M664.293,543.635
		l-0.493-0.936c-0.069,0.593-0.508,1.455-1.612,1.912c-1.83,0.76-4.073,0.216-5.209-2.519c-1.136-2.735,0.082-4.715,1.956-5.498
		c1.685-0.7,3.194-0.149,4.115,1.117l-0.984,0.814c-0.842-0.922-1.71-1.159-2.65-0.771c-1.349,0.561-1.973,1.921-1.187,3.818
		c0.812,1.95,2.193,2.411,3.543,1.851c1.215-0.505,1.481-1.599,1.177-2.582l-1.517,0.63l-0.449-1.083l2.743-1.14l1.638,3.938
		L664.293,543.635z M671.279,540.73l-5.529-4.271l2.328,5.601l-1.229,0.512l-3.243-7.813l1.318-0.548l5.537,4.294l-2.338-5.622
		l1.229-0.51l3.244,7.81L671.279,540.73z M676.913,538.497c-1.596,0.662-3.24,0.14-4.018-1.735l-2.077-4.998l1.229-0.51l2.101,5.056
		c0.444,1.07,1.223,1.466,2.284,1.023c1.059-0.439,1.328-1.269,0.885-2.339l-2.101-5.056l1.228-0.512l2.075,5
		C679.297,536.303,678.509,537.832,676.913,538.497z"/>
</g>
</svg>
